%TF.GenerationSoftware,KiCad,Pcbnew,7.0.7*%
%TF.CreationDate,2024-01-15T16:46:33-03:00*%
%TF.ProjectId,PCB_MAQUEEN_V1,5043425f-4d41-4515-9545-454e5f56312e,rev?*%
%TF.SameCoordinates,Original*%
%TF.FileFunction,Paste,Top*%
%TF.FilePolarity,Positive*%
%FSLAX46Y46*%
G04 Gerber Fmt 4.6, Leading zero omitted, Abs format (unit mm)*
G04 Created by KiCad (PCBNEW 7.0.7) date 2024-01-15 16:46:33*
%MOMM*%
%LPD*%
G01*
G04 APERTURE LIST*
G04 Aperture macros list*
%AMRoundRect*
0 Rectangle with rounded corners*
0 $1 Rounding radius*
0 $2 $3 $4 $5 $6 $7 $8 $9 X,Y pos of 4 corners*
0 Add a 4 corners polygon primitive as box body*
4,1,4,$2,$3,$4,$5,$6,$7,$8,$9,$2,$3,0*
0 Add four circle primitives for the rounded corners*
1,1,$1+$1,$2,$3*
1,1,$1+$1,$4,$5*
1,1,$1+$1,$6,$7*
1,1,$1+$1,$8,$9*
0 Add four rect primitives between the rounded corners*
20,1,$1+$1,$2,$3,$4,$5,0*
20,1,$1+$1,$4,$5,$6,$7,0*
20,1,$1+$1,$6,$7,$8,$9,0*
20,1,$1+$1,$8,$9,$2,$3,0*%
G04 Aperture macros list end*
%ADD10C,0.010000*%
%ADD11RoundRect,0.243750X0.456250X-0.243750X0.456250X0.243750X-0.456250X0.243750X-0.456250X-0.243750X0*%
%ADD12R,0.550000X1.200000*%
%ADD13RoundRect,0.250000X-0.450000X0.262500X-0.450000X-0.262500X0.450000X-0.262500X0.450000X0.262500X0*%
%ADD14RoundRect,0.250000X-0.262500X-0.450000X0.262500X-0.450000X0.262500X0.450000X-0.262500X0.450000X0*%
%ADD15RoundRect,0.250000X-0.475000X0.250000X-0.475000X-0.250000X0.475000X-0.250000X0.475000X0.250000X0*%
%ADD16RoundRect,0.225000X-0.375000X0.225000X-0.375000X-0.225000X0.375000X-0.225000X0.375000X0.225000X0*%
%ADD17RoundRect,0.250000X0.450000X-0.262500X0.450000X0.262500X-0.450000X0.262500X-0.450000X-0.262500X0*%
%ADD18RoundRect,0.250000X-0.600000X0.400000X-0.600000X-0.400000X0.600000X-0.400000X0.600000X0.400000X0*%
%ADD19RoundRect,0.250000X0.475000X-0.250000X0.475000X0.250000X-0.475000X0.250000X-0.475000X-0.250000X0*%
%ADD20RoundRect,0.048800X0.256200X-0.496200X0.256200X0.496200X-0.256200X0.496200X-0.256200X-0.496200X0*%
%ADD21R,0.450000X1.380000*%
%ADD22R,1.650000X1.300000*%
%ADD23R,1.425000X1.550000*%
%ADD24R,1.800000X1.900000*%
%ADD25R,1.000000X1.900000*%
%ADD26RoundRect,0.250000X-0.550000X1.500000X-0.550000X-1.500000X0.550000X-1.500000X0.550000X1.500000X0*%
%ADD27RoundRect,0.041300X-0.908700X-0.253700X0.908700X-0.253700X0.908700X0.253700X-0.908700X0.253700X0*%
%ADD28RoundRect,0.048800X0.496200X0.256200X-0.496200X0.256200X-0.496200X-0.256200X0.496200X-0.256200X0*%
%ADD29RoundRect,0.042000X0.258000X-0.943000X0.258000X0.943000X-0.258000X0.943000X-0.258000X-0.943000X0*%
%ADD30RoundRect,0.150000X-0.587500X-0.150000X0.587500X-0.150000X0.587500X0.150000X-0.587500X0.150000X0*%
%ADD31RoundRect,0.250000X0.250000X0.475000X-0.250000X0.475000X-0.250000X-0.475000X0.250000X-0.475000X0*%
%ADD32R,2.250000X3.180000*%
%ADD33R,2.000000X1.500000*%
%ADD34R,2.000000X3.800000*%
%ADD35R,7.340000X6.350000*%
%ADD36R,1.500000X1.100000*%
%ADD37R,0.450000X1.475000*%
G04 APERTURE END LIST*
%TO.C,U2*%
D10*
X143820000Y-109855000D02*
X142180000Y-109855000D01*
X142180000Y-108565000D01*
X143820000Y-108565000D01*
X143820000Y-109855000D01*
G36*
X143820000Y-109855000D02*
G01*
X142180000Y-109855000D01*
X142180000Y-108565000D01*
X143820000Y-108565000D01*
X143820000Y-109855000D01*
G37*
%TD*%
D11*
%TO.C,D4*%
X217500000Y-94000000D03*
X217500000Y-92125000D03*
%TD*%
D12*
%TO.C,U1*%
X159550000Y-105000000D03*
X160500000Y-105000000D03*
X161450000Y-105000000D03*
X161450000Y-102400000D03*
X160500000Y-102400000D03*
X159550000Y-102400000D03*
%TD*%
D13*
%TO.C,R1*%
X153100000Y-103297500D03*
X153100000Y-105122500D03*
%TD*%
D14*
%TO.C,R3*%
X139587500Y-115460000D03*
X141412500Y-115460000D03*
%TD*%
D15*
%TO.C,C2*%
X147400000Y-106770000D03*
X147400000Y-108670000D03*
%TD*%
D13*
%TO.C,R7*%
X217500000Y-96150000D03*
X217500000Y-97975000D03*
%TD*%
D16*
%TO.C,D6*%
X155500000Y-89135000D03*
X155500000Y-92435000D03*
%TD*%
D17*
%TO.C,R5*%
X144750000Y-102975000D03*
X144750000Y-101150000D03*
%TD*%
D13*
%TO.C,R2*%
X153100000Y-113797500D03*
X153100000Y-115622500D03*
%TD*%
D11*
%TO.C,D2*%
X144750000Y-99000000D03*
X144750000Y-97125000D03*
%TD*%
D18*
%TO.C,D5*%
X190300000Y-92750000D03*
X190300000Y-96250000D03*
%TD*%
D19*
%TO.C,C3*%
X153100000Y-110410000D03*
X153100000Y-108510000D03*
%TD*%
D13*
%TO.C,R8*%
X158000000Y-95287500D03*
X158000000Y-97112500D03*
%TD*%
D20*
%TO.C,Q2*%
X205585000Y-106570000D03*
X207415000Y-106570000D03*
X206500000Y-104430000D03*
%TD*%
D21*
%TO.C,J1*%
X178700000Y-115790000D03*
X179350000Y-115790000D03*
X180000000Y-115790000D03*
X180650000Y-115790000D03*
X181300000Y-115790000D03*
D22*
X176625000Y-118450000D03*
D23*
X177512500Y-115875000D03*
D24*
X178850000Y-118450000D03*
D25*
X181550000Y-118450000D03*
D23*
X182487500Y-115875000D03*
D22*
X183375000Y-118450000D03*
%TD*%
D26*
%TO.C,C7*%
X175850000Y-91700000D03*
X175850000Y-97300000D03*
%TD*%
D27*
%TO.C,U4*%
X177200000Y-102055000D03*
X177200000Y-103325000D03*
X177200000Y-104595000D03*
X177200000Y-105865000D03*
X177200000Y-107135000D03*
X177200000Y-108405000D03*
X177200000Y-109675000D03*
X177200000Y-110945000D03*
X182800000Y-110945000D03*
X182800000Y-109675000D03*
X182800000Y-108405000D03*
X182800000Y-107135000D03*
X182800000Y-105865000D03*
X182800000Y-104595000D03*
X182800000Y-103325000D03*
X182800000Y-102055000D03*
%TD*%
D19*
%TO.C,C4*%
X200500000Y-95950000D03*
X200500000Y-94050000D03*
%TD*%
D28*
%TO.C,Q3*%
X154500000Y-97115000D03*
X154500000Y-95285000D03*
X152360000Y-96200000D03*
%TD*%
D17*
%TO.C,R4*%
X141250000Y-102975000D03*
X141250000Y-101150000D03*
%TD*%
D29*
%TO.C,U2*%
X141095000Y-111685000D03*
X142365000Y-111685000D03*
X143635000Y-111685000D03*
X144905000Y-111685000D03*
X144905000Y-106735000D03*
X143635000Y-106735000D03*
X142365000Y-106735000D03*
X141095000Y-106735000D03*
%TD*%
D17*
%TO.C,R9*%
X152500000Y-90947500D03*
X152500000Y-89122500D03*
%TD*%
D11*
%TO.C,D1*%
X141250000Y-99000000D03*
X141250000Y-97125000D03*
%TD*%
D26*
%TO.C,C6*%
X184150000Y-91700000D03*
X184150000Y-97300000D03*
%TD*%
D30*
%TO.C,Q4*%
X158562500Y-89800000D03*
X158562500Y-91700000D03*
X160437500Y-90750000D03*
%TD*%
D31*
%TO.C,C5*%
X208950000Y-90000000D03*
X207050000Y-90000000D03*
%TD*%
D17*
%TO.C,R6*%
X200650000Y-106612500D03*
X200650000Y-104787500D03*
%TD*%
D32*
%TO.C,D3*%
X200545000Y-115000000D03*
X207455000Y-115000000D03*
%TD*%
D33*
%TO.C,U3*%
X204850000Y-92700000D03*
X204850000Y-95000000D03*
D34*
X211150000Y-95000000D03*
D33*
X204850000Y-97300000D03*
%TD*%
D35*
%TO.C,BT1*%
X140670000Y-75000000D03*
X219330000Y-75000000D03*
%TD*%
D31*
%TO.C,C1*%
X146000000Y-115460000D03*
X144100000Y-115460000D03*
%TD*%
D36*
%TO.C,SW1*%
X217650000Y-104200000D03*
X217650000Y-106700000D03*
X217650000Y-109200000D03*
X212350000Y-104200000D03*
X212350000Y-106700000D03*
X212350000Y-109200000D03*
%TD*%
D37*
%TO.C,Q1*%
X160975000Y-109762000D03*
X160325000Y-109762000D03*
X159675000Y-109762000D03*
X159025000Y-109762000D03*
X159025000Y-115638000D03*
X159675000Y-115638000D03*
X160325000Y-115638000D03*
X160975000Y-115638000D03*
%TD*%
M02*
