%TF.GenerationSoftware,KiCad,Pcbnew,7.0.7*%
%TF.CreationDate,2024-01-15T16:46:33-03:00*%
%TF.ProjectId,PCB_MAQUEEN_V1,5043425f-4d41-4515-9545-454e5f56312e,rev?*%
%TF.SameCoordinates,Original*%
%TF.FileFunction,Legend,Bot*%
%TF.FilePolarity,Positive*%
%FSLAX46Y46*%
G04 Gerber Fmt 4.6, Leading zero omitted, Abs format (unit mm)*
G04 Created by KiCad (PCBNEW 7.0.7) date 2024-01-15 16:46:33*
%MOMM*%
%LPD*%
G01*
G04 APERTURE LIST*
%ADD10C,0.200000*%
G04 APERTURE END LIST*
D10*
G36*
X214166992Y-116377794D02*
G01*
X215213328Y-117818339D01*
X216260642Y-116377794D01*
X216309002Y-116377794D01*
X216309002Y-118660000D01*
X215834682Y-118660000D01*
X215834682Y-117738227D01*
X215222609Y-118623363D01*
X215203558Y-118623363D01*
X214592951Y-117738715D01*
X214592951Y-118660000D01*
X214118632Y-118660000D01*
X214118632Y-116377794D01*
X214166992Y-116377794D01*
G37*
G36*
X213940334Y-118660000D02*
G01*
X213426936Y-118660000D01*
X213286252Y-118349811D01*
X212425052Y-118349811D01*
X212285345Y-118660000D01*
X211770969Y-118660000D01*
X212107716Y-117940949D01*
X212611165Y-117940949D01*
X213099651Y-117940949D01*
X212854919Y-117408988D01*
X212611165Y-117940949D01*
X212107716Y-117940949D01*
X212839776Y-116377794D01*
X212872993Y-116377794D01*
X213940334Y-118660000D01*
G37*
G36*
X211592184Y-116426643D02*
G01*
X211592184Y-118660000D01*
X210935170Y-118660000D01*
X210868615Y-118658762D01*
X210803699Y-118655069D01*
X210740453Y-118648949D01*
X210678909Y-118640431D01*
X210619098Y-118629544D01*
X210561051Y-118616317D01*
X210504798Y-118600778D01*
X210450371Y-118582956D01*
X210397801Y-118562880D01*
X210347119Y-118540579D01*
X210298356Y-118516082D01*
X210251543Y-118489417D01*
X210206711Y-118460613D01*
X210163891Y-118429699D01*
X210123114Y-118396704D01*
X210084412Y-118361657D01*
X210047814Y-118324586D01*
X210013353Y-118285520D01*
X209981058Y-118244488D01*
X209950962Y-118201519D01*
X209923096Y-118156642D01*
X209897490Y-118109885D01*
X209874175Y-118061277D01*
X209853182Y-118010848D01*
X209834543Y-117958625D01*
X209818289Y-117904638D01*
X209804450Y-117848915D01*
X209793058Y-117791485D01*
X209784143Y-117732378D01*
X209777737Y-117671621D01*
X209773870Y-117609244D01*
X209772575Y-117545275D01*
X209772604Y-117543810D01*
X210250802Y-117543810D01*
X210251545Y-117581155D01*
X210253764Y-117617528D01*
X210257445Y-117652913D01*
X210262571Y-117687299D01*
X210269129Y-117720669D01*
X210277103Y-117753011D01*
X210286478Y-117784310D01*
X210297239Y-117814553D01*
X210309371Y-117843725D01*
X210322858Y-117871813D01*
X210337687Y-117898803D01*
X210353842Y-117924680D01*
X210371308Y-117949431D01*
X210390069Y-117973041D01*
X210410111Y-117995498D01*
X210431420Y-118016786D01*
X210453979Y-118036892D01*
X210477773Y-118055802D01*
X210502789Y-118073502D01*
X210529010Y-118089979D01*
X210556422Y-118105217D01*
X210585009Y-118119203D01*
X210614757Y-118131924D01*
X210645651Y-118143365D01*
X210677675Y-118153512D01*
X210710815Y-118162351D01*
X210745056Y-118169869D01*
X210780382Y-118176051D01*
X210816778Y-118180884D01*
X210854230Y-118184353D01*
X210892722Y-118186445D01*
X210932240Y-118187145D01*
X211119330Y-118187145D01*
X211119330Y-116895101D01*
X210936636Y-116895101D01*
X210896848Y-116895810D01*
X210858094Y-116897926D01*
X210820389Y-116901436D01*
X210783748Y-116906325D01*
X210748186Y-116912578D01*
X210713718Y-116920181D01*
X210680359Y-116929119D01*
X210648124Y-116939377D01*
X210617029Y-116950941D01*
X210587087Y-116963797D01*
X210558315Y-116977929D01*
X210530727Y-116993324D01*
X210504339Y-117009965D01*
X210479164Y-117027840D01*
X210455219Y-117046934D01*
X210432519Y-117067231D01*
X210411077Y-117088717D01*
X210390911Y-117111378D01*
X210372033Y-117135199D01*
X210354460Y-117160166D01*
X210338207Y-117186264D01*
X210323288Y-117213478D01*
X210309718Y-117241794D01*
X210297513Y-117271197D01*
X210286688Y-117301672D01*
X210277258Y-117333206D01*
X210269237Y-117365783D01*
X210262640Y-117399389D01*
X210257484Y-117434009D01*
X210253782Y-117469629D01*
X210251549Y-117506234D01*
X210250802Y-117543810D01*
X209772604Y-117543810D01*
X209773870Y-117480943D01*
X209777737Y-117418209D01*
X209784143Y-117357102D01*
X209793058Y-117297652D01*
X209804450Y-117239888D01*
X209818289Y-117183840D01*
X209834543Y-117129537D01*
X209853182Y-117077008D01*
X209874175Y-117026283D01*
X209897490Y-116977392D01*
X209923096Y-116930363D01*
X209950962Y-116885227D01*
X209981058Y-116842012D01*
X210013353Y-116800748D01*
X210047814Y-116761465D01*
X210084412Y-116724192D01*
X210123114Y-116688958D01*
X210163891Y-116655792D01*
X210206711Y-116624725D01*
X210251543Y-116595786D01*
X210298356Y-116569003D01*
X210347119Y-116544407D01*
X210397801Y-116522027D01*
X210450371Y-116501893D01*
X210504798Y-116484033D01*
X210561051Y-116468477D01*
X210619098Y-116455255D01*
X210678909Y-116444395D01*
X210740453Y-116435929D01*
X210803699Y-116429884D01*
X210868615Y-116426290D01*
X210935170Y-116425177D01*
X211592184Y-116426643D01*
G37*
G36*
X208156664Y-116907801D02*
G01*
X208156664Y-116440321D01*
X209517096Y-116440321D01*
X209517096Y-118660000D01*
X208156664Y-118660000D01*
X208156664Y-118188611D01*
X209042777Y-118188611D01*
X209042777Y-117784633D01*
X208282693Y-117784633D01*
X208282693Y-117311779D01*
X209042777Y-117311779D01*
X209042777Y-116907801D01*
X208156664Y-116907801D01*
G37*
G36*
X207045359Y-118660000D02*
G01*
X206196859Y-118660000D01*
X206154184Y-118658975D01*
X206112807Y-118655949D01*
X206072730Y-118650991D01*
X206033959Y-118644172D01*
X205996496Y-118635563D01*
X205960346Y-118625233D01*
X205925512Y-118613254D01*
X205891998Y-118599694D01*
X205859808Y-118584626D01*
X205828946Y-118568119D01*
X205799415Y-118550244D01*
X205771218Y-118531071D01*
X205744361Y-118510670D01*
X205718846Y-118489112D01*
X205694678Y-118466468D01*
X205671859Y-118442807D01*
X205650395Y-118418200D01*
X205630288Y-118392717D01*
X205611542Y-118366429D01*
X205594161Y-118339407D01*
X205578150Y-118311720D01*
X205563511Y-118283439D01*
X205550248Y-118254635D01*
X205538365Y-118225377D01*
X205527867Y-118195736D01*
X205518755Y-118165784D01*
X205511036Y-118135589D01*
X205504711Y-118105222D01*
X205499786Y-118074754D01*
X205496263Y-118044255D01*
X205494146Y-118013796D01*
X205493440Y-117983447D01*
X205494205Y-117953161D01*
X205957013Y-117953161D01*
X205958638Y-117981497D01*
X205963372Y-118008234D01*
X205971004Y-118033339D01*
X205981323Y-118056781D01*
X205994117Y-118078528D01*
X206009177Y-118098550D01*
X206026290Y-118116814D01*
X206045245Y-118133290D01*
X206065833Y-118147945D01*
X206087840Y-118160748D01*
X206111057Y-118171668D01*
X206135272Y-118180673D01*
X206160274Y-118187732D01*
X206185852Y-118192813D01*
X206211795Y-118195884D01*
X206237892Y-118196915D01*
X206572505Y-118196915D01*
X206572505Y-117722107D01*
X206239357Y-117722107D01*
X206202860Y-117723403D01*
X206169162Y-117727186D01*
X206138204Y-117733300D01*
X206109924Y-117741585D01*
X206084260Y-117751886D01*
X206061150Y-117764044D01*
X206040533Y-117777903D01*
X206022348Y-117793304D01*
X206006532Y-117810090D01*
X205993025Y-117828105D01*
X205981765Y-117847189D01*
X205972690Y-117867187D01*
X205965739Y-117887941D01*
X205960850Y-117909292D01*
X205957962Y-117931085D01*
X205957013Y-117953161D01*
X205494205Y-117953161D01*
X205494265Y-117950798D01*
X205496697Y-117918904D01*
X205500671Y-117887785D01*
X205506122Y-117857464D01*
X205512987Y-117827962D01*
X205521199Y-117799300D01*
X205530696Y-117771501D01*
X205541411Y-117744585D01*
X205553280Y-117718574D01*
X205566239Y-117693490D01*
X205580222Y-117669354D01*
X205595166Y-117646188D01*
X205611005Y-117624014D01*
X205627675Y-117602852D01*
X205645112Y-117582725D01*
X205663250Y-117563654D01*
X205682024Y-117545661D01*
X205701371Y-117528767D01*
X205721226Y-117512994D01*
X205741523Y-117498362D01*
X205762198Y-117484895D01*
X205783187Y-117472613D01*
X205804425Y-117461538D01*
X205825847Y-117451692D01*
X205847388Y-117443096D01*
X205868984Y-117435771D01*
X205890571Y-117429739D01*
X205912083Y-117425023D01*
X205933455Y-117421642D01*
X205954624Y-117419620D01*
X205975524Y-117418977D01*
X205996092Y-117419734D01*
X205969368Y-117417811D01*
X205944788Y-117406518D01*
X205926978Y-117394525D01*
X205908490Y-117379100D01*
X205889716Y-117360363D01*
X205871050Y-117338435D01*
X205852885Y-117313435D01*
X205835616Y-117285485D01*
X205819635Y-117254704D01*
X205805337Y-117221212D01*
X205793115Y-117185131D01*
X205787905Y-117166156D01*
X205783362Y-117146579D01*
X205779534Y-117126414D01*
X205776471Y-117105677D01*
X205775797Y-117099288D01*
X206216887Y-117099288D01*
X206217948Y-117121700D01*
X206221049Y-117143103D01*
X206226064Y-117163434D01*
X206232870Y-117182636D01*
X206241341Y-117200646D01*
X206256899Y-117225298D01*
X206275505Y-117246933D01*
X206296739Y-117265347D01*
X206320180Y-117280339D01*
X206345408Y-117291705D01*
X206372002Y-117299242D01*
X206399544Y-117302748D01*
X206408862Y-117302986D01*
X206572505Y-117302986D01*
X206572505Y-116902428D01*
X206400558Y-116902428D01*
X206373676Y-116904481D01*
X206347692Y-116910507D01*
X206322986Y-116920305D01*
X206299939Y-116933675D01*
X206278934Y-116950416D01*
X206260353Y-116970328D01*
X206244575Y-116993211D01*
X206231984Y-117018863D01*
X206225549Y-117037405D01*
X206220812Y-117057029D01*
X206217887Y-117077676D01*
X206216887Y-117099288D01*
X205775797Y-117099288D01*
X205774223Y-117084382D01*
X205772838Y-117062545D01*
X205772365Y-117040181D01*
X205773116Y-117011814D01*
X205775353Y-116983534D01*
X205779057Y-116955396D01*
X205784204Y-116927451D01*
X205790775Y-116899755D01*
X205798747Y-116872359D01*
X205808099Y-116845317D01*
X205818809Y-116818683D01*
X205830858Y-116792510D01*
X205844222Y-116766851D01*
X205858881Y-116741759D01*
X205874813Y-116717288D01*
X205891997Y-116693491D01*
X205910411Y-116670422D01*
X205930034Y-116648133D01*
X205950846Y-116626678D01*
X205972823Y-116606110D01*
X205995946Y-116586483D01*
X206020192Y-116567850D01*
X206045540Y-116550264D01*
X206071970Y-116533779D01*
X206099458Y-116518447D01*
X206127985Y-116504323D01*
X206157529Y-116491459D01*
X206188067Y-116479909D01*
X206219580Y-116469726D01*
X206252046Y-116460963D01*
X206285442Y-116453674D01*
X206319749Y-116447912D01*
X206354943Y-116443730D01*
X206391005Y-116441182D01*
X206427913Y-116440321D01*
X207045359Y-116440321D01*
X207045359Y-118660000D01*
G37*
G36*
X205058199Y-118660000D02*
G01*
X204586810Y-118660000D01*
X204586810Y-117708918D01*
X203892184Y-116440321D01*
X204430006Y-116440321D01*
X204822260Y-117182819D01*
X205215003Y-116440321D01*
X205751360Y-116440321D01*
X205058199Y-117708918D01*
X205058199Y-118660000D01*
G37*
G36*
X203464759Y-117630272D02*
G01*
X203434922Y-117628702D01*
X203405792Y-117624102D01*
X203377537Y-117616635D01*
X203350323Y-117606466D01*
X203324321Y-117593757D01*
X203299697Y-117578674D01*
X203276621Y-117561380D01*
X203255259Y-117542039D01*
X203235781Y-117520814D01*
X203218355Y-117497870D01*
X203203148Y-117473370D01*
X203190329Y-117447479D01*
X203180066Y-117420359D01*
X203172527Y-117392176D01*
X203167880Y-117363092D01*
X203166294Y-117333272D01*
X203167880Y-117303430D01*
X203172527Y-117274285D01*
X203180066Y-117246005D01*
X203190329Y-117218761D01*
X203203148Y-117192721D01*
X203218355Y-117168056D01*
X203235781Y-117144936D01*
X203255259Y-117123529D01*
X203276621Y-117104005D01*
X203299697Y-117086535D01*
X203324321Y-117071286D01*
X203350323Y-117058430D01*
X203377537Y-117048136D01*
X203405792Y-117040573D01*
X203434922Y-117035911D01*
X203464759Y-117034319D01*
X203494842Y-117035895D01*
X203524167Y-117040513D01*
X203552570Y-117048011D01*
X203579889Y-117058224D01*
X203605959Y-117070991D01*
X203630619Y-117086148D01*
X203653704Y-117103532D01*
X203675052Y-117122979D01*
X203694499Y-117144327D01*
X203711883Y-117167412D01*
X203727040Y-117192072D01*
X203739807Y-117218142D01*
X203750021Y-117245461D01*
X203757518Y-117273864D01*
X203762136Y-117303189D01*
X203763712Y-117333272D01*
X203762136Y-117363334D01*
X203757518Y-117392597D01*
X203750021Y-117420904D01*
X203739807Y-117448097D01*
X203727040Y-117474020D01*
X203711883Y-117498514D01*
X203694499Y-117521423D01*
X203675052Y-117542588D01*
X203653704Y-117561854D01*
X203630619Y-117579061D01*
X203605959Y-117594053D01*
X203579889Y-117606672D01*
X203552570Y-117616761D01*
X203524167Y-117624162D01*
X203494842Y-117628718D01*
X203464759Y-117630272D01*
G37*
G36*
X203464759Y-118660000D02*
G01*
X203434922Y-118658396D01*
X203405792Y-118653700D01*
X203377537Y-118646079D01*
X203350323Y-118635705D01*
X203324321Y-118622746D01*
X203299697Y-118607372D01*
X203276621Y-118589752D01*
X203255259Y-118570057D01*
X203235781Y-118548456D01*
X203218355Y-118525117D01*
X203203148Y-118500212D01*
X203190329Y-118473909D01*
X203180066Y-118446379D01*
X203172527Y-118417790D01*
X203167880Y-118388312D01*
X203166294Y-118358115D01*
X203167896Y-118329122D01*
X203172587Y-118300698D01*
X203180192Y-118273023D01*
X203190535Y-118246275D01*
X203203443Y-118220635D01*
X203218741Y-118196283D01*
X203236255Y-118173397D01*
X203255809Y-118152158D01*
X203277229Y-118132744D01*
X203300341Y-118115337D01*
X203324970Y-118100115D01*
X203350942Y-118087258D01*
X203378081Y-118076945D01*
X203406213Y-118069356D01*
X203435164Y-118064672D01*
X203464759Y-118063070D01*
X203494681Y-118064656D01*
X203523887Y-118069303D01*
X203552207Y-118076842D01*
X203579477Y-118087105D01*
X203605526Y-118099924D01*
X203630189Y-118115131D01*
X203653298Y-118132557D01*
X203674685Y-118152035D01*
X203694184Y-118173397D01*
X203711625Y-118196473D01*
X203726843Y-118221097D01*
X203739669Y-118247099D01*
X203749937Y-118274312D01*
X203757478Y-118302568D01*
X203762126Y-118331698D01*
X203763712Y-118361535D01*
X203762136Y-118391371D01*
X203757518Y-118420501D01*
X203750021Y-118448757D01*
X203739807Y-118475970D01*
X203727040Y-118501973D01*
X203711883Y-118526596D01*
X203694499Y-118549673D01*
X203675052Y-118571034D01*
X203653704Y-118590512D01*
X203630619Y-118607939D01*
X203605959Y-118623145D01*
X203579889Y-118635964D01*
X203552570Y-118646228D01*
X203524167Y-118653767D01*
X203494842Y-118658413D01*
X203464759Y-118660000D01*
G37*
G36*
X200602721Y-116440321D02*
G01*
X201158618Y-117697194D01*
X201713049Y-116440321D01*
X202216678Y-116440321D01*
X201175715Y-118730341D01*
X201138590Y-118730341D01*
X200093719Y-116440321D01*
X200602721Y-116440321D01*
G37*
G36*
X199915422Y-118660000D02*
G01*
X199441102Y-118660000D01*
X199441102Y-116440321D01*
X199915422Y-116440321D01*
X199915422Y-118660000D01*
G37*
G36*
X197763154Y-116409057D02*
G01*
X197763154Y-117626364D01*
X199046894Y-116373886D01*
X199090858Y-116373886D01*
X199090858Y-118660000D01*
X198616538Y-118660000D01*
X198616538Y-117442693D01*
X197329867Y-118691263D01*
X197287369Y-118691263D01*
X197287369Y-116409057D01*
X197763154Y-116409057D01*
G37*
G36*
X196937613Y-118660000D02*
G01*
X196463293Y-118660000D01*
X196463293Y-116440321D01*
X196937613Y-116440321D01*
X196937613Y-118660000D01*
G37*
G36*
X195040334Y-118698101D02*
G01*
X195008924Y-118697669D01*
X194978067Y-118696384D01*
X194947752Y-118694264D01*
X194917968Y-118691325D01*
X194888705Y-118687585D01*
X194859951Y-118683061D01*
X194831697Y-118677770D01*
X194803930Y-118671731D01*
X194776641Y-118664959D01*
X194749818Y-118657473D01*
X194723451Y-118649289D01*
X194697529Y-118640425D01*
X194672041Y-118630898D01*
X194646976Y-118620725D01*
X194622323Y-118609924D01*
X194598072Y-118598511D01*
X194574211Y-118586505D01*
X194550730Y-118573922D01*
X194527619Y-118560780D01*
X194504865Y-118547095D01*
X194482459Y-118532886D01*
X194460390Y-118518169D01*
X194438646Y-118502962D01*
X194417218Y-118487282D01*
X194396093Y-118471146D01*
X194375262Y-118454571D01*
X194354713Y-118437575D01*
X194334435Y-118420175D01*
X194314419Y-118402388D01*
X194294653Y-118384232D01*
X194275125Y-118365724D01*
X194255826Y-118346880D01*
X194528401Y-117963419D01*
X194543273Y-117977786D01*
X194558213Y-117991845D01*
X194573225Y-118005587D01*
X194588313Y-118019002D01*
X194603478Y-118032081D01*
X194618726Y-118044813D01*
X194634058Y-118057189D01*
X194649477Y-118069199D01*
X194680592Y-118092082D01*
X194712096Y-118113385D01*
X194744013Y-118133029D01*
X194776369Y-118150936D01*
X194809189Y-118167029D01*
X194842497Y-118181229D01*
X194876319Y-118193459D01*
X194910680Y-118203639D01*
X194945604Y-118211694D01*
X194981118Y-118217543D01*
X195017246Y-118221110D01*
X195054012Y-118222316D01*
X195085389Y-118221462D01*
X195116736Y-118218926D01*
X195147991Y-118214743D01*
X195179090Y-118208952D01*
X195209970Y-118201589D01*
X195240567Y-118192692D01*
X195270818Y-118182299D01*
X195300659Y-118170445D01*
X195330028Y-118157169D01*
X195358859Y-118142508D01*
X195387092Y-118126499D01*
X195414660Y-118109178D01*
X195441503Y-118090585D01*
X195467555Y-118070754D01*
X195492754Y-118049724D01*
X195517035Y-118027533D01*
X195540337Y-118004216D01*
X195562595Y-117979812D01*
X195583745Y-117954357D01*
X195603725Y-117927889D01*
X195622472Y-117900445D01*
X195639920Y-117872063D01*
X195656008Y-117842778D01*
X195670672Y-117812629D01*
X195683848Y-117781654D01*
X195695473Y-117749888D01*
X195705483Y-117717369D01*
X195713816Y-117684135D01*
X195720407Y-117650222D01*
X195725194Y-117615669D01*
X195728112Y-117580511D01*
X195729099Y-117544787D01*
X195728146Y-117509430D01*
X195725322Y-117474552D01*
X195720686Y-117440197D01*
X195714294Y-117406407D01*
X195706202Y-117373223D01*
X195696468Y-117340687D01*
X195685147Y-117308842D01*
X195672298Y-117277730D01*
X195657975Y-117247393D01*
X195642237Y-117217873D01*
X195625139Y-117189212D01*
X195606739Y-117161452D01*
X195587094Y-117134636D01*
X195566259Y-117108806D01*
X195544292Y-117084003D01*
X195521249Y-117060270D01*
X195497187Y-117037649D01*
X195472163Y-117016182D01*
X195446233Y-116995911D01*
X195419455Y-116976879D01*
X195391884Y-116959127D01*
X195363578Y-116942698D01*
X195334594Y-116927634D01*
X195304987Y-116913976D01*
X195274815Y-116901767D01*
X195244134Y-116891050D01*
X195213002Y-116881866D01*
X195181474Y-116874257D01*
X195149608Y-116868266D01*
X195117461Y-116863934D01*
X195085088Y-116861304D01*
X195052547Y-116860418D01*
X195017783Y-116861433D01*
X194983285Y-116864464D01*
X194949056Y-116869489D01*
X194915099Y-116876485D01*
X194881417Y-116885430D01*
X194848012Y-116896302D01*
X194814888Y-116909079D01*
X194782048Y-116923738D01*
X194749493Y-116940258D01*
X194717228Y-116958616D01*
X194685254Y-116978790D01*
X194653576Y-117000759D01*
X194637848Y-117012408D01*
X194622195Y-117024498D01*
X194606617Y-117037026D01*
X194591115Y-117049988D01*
X194575688Y-117063382D01*
X194560338Y-117077205D01*
X194545064Y-117091454D01*
X194529867Y-117106127D01*
X194255826Y-116735854D01*
X194278636Y-116713909D01*
X194301545Y-116692678D01*
X194324558Y-116672158D01*
X194347675Y-116652348D01*
X194370901Y-116633246D01*
X194394237Y-116614849D01*
X194417687Y-116597156D01*
X194441253Y-116580165D01*
X194464937Y-116563873D01*
X194488743Y-116548280D01*
X194512673Y-116533382D01*
X194536731Y-116519179D01*
X194560917Y-116505667D01*
X194585236Y-116492845D01*
X194609690Y-116480711D01*
X194634281Y-116469263D01*
X194659012Y-116458500D01*
X194683887Y-116448418D01*
X194708907Y-116439016D01*
X194734075Y-116430293D01*
X194759394Y-116422246D01*
X194784867Y-116414873D01*
X194810496Y-116408173D01*
X194836285Y-116402142D01*
X194862235Y-116396780D01*
X194888349Y-116392085D01*
X194914631Y-116388053D01*
X194941082Y-116384685D01*
X194967706Y-116381976D01*
X194994505Y-116379926D01*
X195021482Y-116378533D01*
X195048639Y-116377794D01*
X195107151Y-116379351D01*
X195165030Y-116383966D01*
X195222196Y-116391557D01*
X195278569Y-116402045D01*
X195334068Y-116415347D01*
X195388613Y-116431382D01*
X195442123Y-116450068D01*
X195494519Y-116471324D01*
X195545720Y-116495069D01*
X195595646Y-116521221D01*
X195644216Y-116549700D01*
X195691350Y-116580422D01*
X195736968Y-116613308D01*
X195780990Y-116648276D01*
X195823334Y-116685244D01*
X195863921Y-116724131D01*
X195902671Y-116764855D01*
X195939503Y-116807336D01*
X195974336Y-116851491D01*
X196007092Y-116897240D01*
X196037688Y-116944500D01*
X196066045Y-116993192D01*
X196092083Y-117043232D01*
X196115720Y-117094540D01*
X196136878Y-117147035D01*
X196155476Y-117200634D01*
X196171432Y-117255258D01*
X196184668Y-117310823D01*
X196195102Y-117367249D01*
X196202654Y-117424455D01*
X196207244Y-117482358D01*
X196208792Y-117540879D01*
X196207263Y-117599167D01*
X196202727Y-117656834D01*
X196195258Y-117713799D01*
X196184932Y-117769981D01*
X196171823Y-117825300D01*
X196156007Y-117879675D01*
X196137558Y-117933026D01*
X196116552Y-117985271D01*
X196093064Y-118036331D01*
X196067169Y-118086124D01*
X196038941Y-118134571D01*
X196008457Y-118181590D01*
X195975790Y-118227101D01*
X195941016Y-118271023D01*
X195904211Y-118313277D01*
X195865448Y-118353780D01*
X195824803Y-118392453D01*
X195782352Y-118429215D01*
X195738168Y-118463986D01*
X195692328Y-118496684D01*
X195644907Y-118527230D01*
X195595978Y-118555542D01*
X195545618Y-118581540D01*
X195493901Y-118605144D01*
X195440903Y-118626273D01*
X195386698Y-118644846D01*
X195331362Y-118660783D01*
X195274969Y-118674002D01*
X195217595Y-118684425D01*
X195159314Y-118691969D01*
X195100202Y-118696555D01*
X195040334Y-118698101D01*
G37*
G36*
X194043824Y-118660000D02*
G01*
X193569504Y-118660000D01*
X193569504Y-116440321D01*
X194043824Y-116440321D01*
X194043824Y-118660000D01*
G37*
G36*
X192372226Y-118702498D02*
G01*
X192327923Y-118701413D01*
X192284173Y-118698190D01*
X192241029Y-118692872D01*
X192198549Y-118685505D01*
X192156788Y-118676133D01*
X192115803Y-118664801D01*
X192075650Y-118651555D01*
X192036384Y-118636438D01*
X191998062Y-118619495D01*
X191960740Y-118600773D01*
X191924474Y-118580314D01*
X191889320Y-118558165D01*
X191855334Y-118534369D01*
X191822573Y-118508972D01*
X191791092Y-118482018D01*
X191760947Y-118453553D01*
X191732194Y-118423621D01*
X191704891Y-118392267D01*
X191679091Y-118359536D01*
X191654853Y-118325472D01*
X191632231Y-118290120D01*
X191611282Y-118253526D01*
X191592062Y-118215733D01*
X191574628Y-118176788D01*
X191559034Y-118136734D01*
X191545338Y-118095616D01*
X191533594Y-118053480D01*
X191523860Y-118010370D01*
X191516192Y-117966330D01*
X191510645Y-117921407D01*
X191507276Y-117875643D01*
X191506140Y-117829085D01*
X191506140Y-116440321D01*
X191983391Y-116440321D01*
X191983391Y-117827620D01*
X191983921Y-117848952D01*
X191985493Y-117869887D01*
X191988078Y-117890409D01*
X191991647Y-117910496D01*
X191996170Y-117930133D01*
X192001619Y-117949299D01*
X192007966Y-117967977D01*
X192015181Y-117986149D01*
X192032099Y-118020897D01*
X192052144Y-118053398D01*
X192075084Y-118083502D01*
X192100689Y-118111064D01*
X192128726Y-118135935D01*
X192158964Y-118157968D01*
X192191174Y-118177016D01*
X192225123Y-118192931D01*
X192260580Y-118205566D01*
X192297315Y-118214773D01*
X192335095Y-118220406D01*
X192373691Y-118222316D01*
X192412173Y-118220417D01*
X192449801Y-118214813D01*
X192486350Y-118205650D01*
X192521595Y-118193068D01*
X192555312Y-118177212D01*
X192587276Y-118158225D01*
X192617262Y-118136250D01*
X192645045Y-118111430D01*
X192670401Y-118083908D01*
X192693105Y-118053827D01*
X192712933Y-118021330D01*
X192729660Y-117986561D01*
X192736790Y-117968369D01*
X192743060Y-117949662D01*
X192748443Y-117930459D01*
X192752911Y-117910777D01*
X192756434Y-117890634D01*
X192758985Y-117870048D01*
X192760537Y-117849038D01*
X192761060Y-117827620D01*
X192761060Y-116440321D01*
X193238311Y-116440321D01*
X193238311Y-117829085D01*
X193237175Y-117875643D01*
X193233806Y-117921407D01*
X193228259Y-117966330D01*
X193220591Y-118010370D01*
X193210857Y-118053480D01*
X193199114Y-118095616D01*
X193185417Y-118136734D01*
X193169824Y-118176788D01*
X193152389Y-118215733D01*
X193133169Y-118253526D01*
X193112220Y-118290120D01*
X193089598Y-118325472D01*
X193065360Y-118359536D01*
X193039561Y-118392267D01*
X193012257Y-118423621D01*
X192983504Y-118453553D01*
X192953360Y-118482018D01*
X192921878Y-118508972D01*
X192889117Y-118534369D01*
X192855131Y-118558165D01*
X192819977Y-118580314D01*
X192783711Y-118600773D01*
X192746389Y-118619495D01*
X192708067Y-118636438D01*
X192668801Y-118651555D01*
X192628648Y-118664801D01*
X192587663Y-118676133D01*
X192545902Y-118685505D01*
X192503422Y-118692872D01*
X192460279Y-118698190D01*
X192416528Y-118701413D01*
X192372226Y-118702498D01*
G37*
G36*
X190499371Y-118699567D02*
G01*
X190455043Y-118698799D01*
X190411567Y-118696510D01*
X190368979Y-118692721D01*
X190327317Y-118687454D01*
X190286615Y-118680730D01*
X190246912Y-118672570D01*
X190208242Y-118662997D01*
X190170643Y-118652031D01*
X190134152Y-118639694D01*
X190098803Y-118626008D01*
X190064634Y-118610993D01*
X190031682Y-118594672D01*
X189999982Y-118577066D01*
X189969571Y-118558196D01*
X189940485Y-118538084D01*
X189912761Y-118516751D01*
X189886436Y-118494219D01*
X189861544Y-118470509D01*
X189838124Y-118445643D01*
X189816212Y-118419642D01*
X189795843Y-118392527D01*
X189777054Y-118364321D01*
X189759882Y-118335044D01*
X189744363Y-118304718D01*
X189730534Y-118273364D01*
X189718430Y-118241005D01*
X189708089Y-118207661D01*
X189699546Y-118173353D01*
X189692838Y-118138104D01*
X189688002Y-118101935D01*
X189685073Y-118064867D01*
X189684089Y-118026922D01*
X189684780Y-117994991D01*
X189686839Y-117963937D01*
X189690247Y-117933735D01*
X189694984Y-117904361D01*
X189701031Y-117875789D01*
X189708368Y-117847994D01*
X189716974Y-117820953D01*
X189726831Y-117794639D01*
X189737919Y-117769030D01*
X189750218Y-117744098D01*
X189763708Y-117719821D01*
X189778370Y-117696172D01*
X189794184Y-117673128D01*
X189811131Y-117650664D01*
X189829190Y-117628754D01*
X189848342Y-117607374D01*
X189868568Y-117586499D01*
X189889847Y-117566105D01*
X189912160Y-117546166D01*
X189935487Y-117526658D01*
X189959809Y-117507557D01*
X189985106Y-117488836D01*
X190011358Y-117470472D01*
X190038546Y-117452440D01*
X190066650Y-117434715D01*
X190095650Y-117417272D01*
X190125526Y-117400086D01*
X190156260Y-117383133D01*
X190187830Y-117366388D01*
X190220219Y-117349826D01*
X190253405Y-117333422D01*
X190287369Y-117317152D01*
X190310939Y-117306243D01*
X190333923Y-117295752D01*
X190356310Y-117285651D01*
X190378091Y-117275913D01*
X190399253Y-117266511D01*
X190419787Y-117257415D01*
X190439681Y-117248598D01*
X190458926Y-117240033D01*
X190477511Y-117231690D01*
X190495424Y-117223543D01*
X190529195Y-117207724D01*
X190560153Y-117192351D01*
X190588215Y-117177201D01*
X190613294Y-117162051D01*
X190635305Y-117146678D01*
X190654164Y-117130859D01*
X190669784Y-117114370D01*
X190682082Y-117096987D01*
X190690971Y-117078489D01*
X190696367Y-117058651D01*
X190698185Y-117037250D01*
X190696879Y-117017695D01*
X190690172Y-116989379D01*
X190682677Y-116971328D01*
X190672875Y-116954056D01*
X190660863Y-116937664D01*
X190646737Y-116922256D01*
X190630595Y-116907931D01*
X190612533Y-116894792D01*
X190592647Y-116882940D01*
X190571034Y-116872477D01*
X190547791Y-116863505D01*
X190523014Y-116856124D01*
X190496800Y-116850438D01*
X190469245Y-116846547D01*
X190440446Y-116844552D01*
X190425610Y-116844298D01*
X190403107Y-116844887D01*
X190380706Y-116846695D01*
X190358473Y-116849785D01*
X190336477Y-116854221D01*
X190314784Y-116860064D01*
X190293461Y-116867379D01*
X190272577Y-116876228D01*
X190252198Y-116886674D01*
X190232391Y-116898781D01*
X190213224Y-116912610D01*
X190194764Y-116928225D01*
X190177078Y-116945689D01*
X190160233Y-116965066D01*
X190144298Y-116986417D01*
X190129338Y-117009806D01*
X190115422Y-117035296D01*
X189763712Y-116790565D01*
X189774134Y-116764410D01*
X189785422Y-116739159D01*
X189797557Y-116714805D01*
X189810519Y-116691344D01*
X189824289Y-116668772D01*
X189838850Y-116647083D01*
X189854180Y-116626273D01*
X189870263Y-116606337D01*
X189887078Y-116587271D01*
X189904607Y-116569069D01*
X189922831Y-116551727D01*
X189941731Y-116535240D01*
X189961287Y-116519604D01*
X189981482Y-116504814D01*
X190002295Y-116490864D01*
X190023709Y-116477751D01*
X190045703Y-116465469D01*
X190068259Y-116454014D01*
X190091359Y-116443381D01*
X190114983Y-116433565D01*
X190139112Y-116424561D01*
X190163727Y-116416366D01*
X190188809Y-116408973D01*
X190214340Y-116402379D01*
X190240300Y-116396578D01*
X190266671Y-116391566D01*
X190293432Y-116387338D01*
X190320567Y-116383890D01*
X190348054Y-116381216D01*
X190375877Y-116379312D01*
X190404014Y-116378173D01*
X190432449Y-116377794D01*
X190470639Y-116378550D01*
X190508332Y-116380802D01*
X190545483Y-116384527D01*
X190582043Y-116389699D01*
X190617966Y-116396297D01*
X190653204Y-116404295D01*
X190687712Y-116413670D01*
X190721442Y-116424399D01*
X190754346Y-116436457D01*
X190786379Y-116449821D01*
X190817492Y-116464467D01*
X190847640Y-116480371D01*
X190876775Y-116497509D01*
X190904850Y-116515858D01*
X190931818Y-116535393D01*
X190957632Y-116556092D01*
X190982246Y-116577929D01*
X191005612Y-116600882D01*
X191027683Y-116624927D01*
X191048413Y-116650039D01*
X191067754Y-116676196D01*
X191085660Y-116703372D01*
X191102084Y-116731545D01*
X191116978Y-116760691D01*
X191130295Y-116790785D01*
X191141990Y-116821805D01*
X191152014Y-116853725D01*
X191160320Y-116886524D01*
X191166863Y-116920175D01*
X191171594Y-116954657D01*
X191174467Y-116989945D01*
X191175436Y-117026015D01*
X191174622Y-117059170D01*
X191172221Y-117091066D01*
X191168288Y-117121740D01*
X191162883Y-117151230D01*
X191156062Y-117179574D01*
X191147882Y-117206808D01*
X191138402Y-117232971D01*
X191127679Y-117258099D01*
X191115769Y-117282231D01*
X191102732Y-117305403D01*
X191088624Y-117327653D01*
X191073503Y-117349019D01*
X191057427Y-117369539D01*
X191040452Y-117389248D01*
X191022637Y-117408186D01*
X191004038Y-117426390D01*
X190984714Y-117443897D01*
X190964722Y-117460744D01*
X190944120Y-117476969D01*
X190922964Y-117492609D01*
X190901313Y-117507703D01*
X190879224Y-117522287D01*
X190856754Y-117536399D01*
X190833961Y-117550076D01*
X190810903Y-117563356D01*
X190787637Y-117576277D01*
X190764221Y-117588875D01*
X190740711Y-117601189D01*
X190717166Y-117613255D01*
X190693643Y-117625112D01*
X190670200Y-117636796D01*
X190646894Y-117648346D01*
X190625171Y-117659130D01*
X190603359Y-117669961D01*
X190581509Y-117680842D01*
X190559672Y-117691779D01*
X190537899Y-117702774D01*
X190516241Y-117713832D01*
X190494749Y-117724956D01*
X190473474Y-117736151D01*
X190452468Y-117747420D01*
X190431781Y-117758768D01*
X190411465Y-117770198D01*
X190391570Y-117781714D01*
X190372148Y-117793320D01*
X190353249Y-117805020D01*
X190334925Y-117816819D01*
X190317227Y-117828719D01*
X190300206Y-117840725D01*
X190283913Y-117852841D01*
X190268399Y-117865071D01*
X190239913Y-117889888D01*
X190215156Y-117915207D01*
X190194536Y-117941060D01*
X190178463Y-117967478D01*
X190167344Y-117994493D01*
X190161589Y-118022136D01*
X190160851Y-118036203D01*
X190162338Y-118056164D01*
X190166748Y-118075336D01*
X190174005Y-118093648D01*
X190184031Y-118111033D01*
X190196751Y-118127422D01*
X190212087Y-118142747D01*
X190229964Y-118156937D01*
X190250305Y-118169926D01*
X190273032Y-118181644D01*
X190298070Y-118192023D01*
X190325343Y-118200993D01*
X190354772Y-118208486D01*
X190386282Y-118214434D01*
X190419797Y-118218767D01*
X190455239Y-118221418D01*
X190492533Y-118222316D01*
X190526822Y-118221519D01*
X190559918Y-118219096D01*
X190591854Y-118215004D01*
X190622661Y-118209196D01*
X190652372Y-118201628D01*
X190681018Y-118192254D01*
X190708634Y-118181031D01*
X190735249Y-118167911D01*
X190760897Y-118152851D01*
X190785610Y-118135806D01*
X190809419Y-118116729D01*
X190832358Y-118095577D01*
X190854459Y-118072304D01*
X190875753Y-118046865D01*
X190896272Y-118019215D01*
X190916050Y-117989309D01*
X191295115Y-118255045D01*
X191280072Y-118281806D01*
X191264346Y-118307774D01*
X191247944Y-118332944D01*
X191230869Y-118357313D01*
X191213127Y-118380878D01*
X191194722Y-118403634D01*
X191175658Y-118425578D01*
X191155942Y-118446707D01*
X191135577Y-118467016D01*
X191114569Y-118486503D01*
X191092923Y-118505162D01*
X191070642Y-118522992D01*
X191047733Y-118539987D01*
X191024199Y-118556145D01*
X191000046Y-118571461D01*
X190975279Y-118585933D01*
X190949902Y-118599556D01*
X190923920Y-118612326D01*
X190897338Y-118624241D01*
X190870161Y-118635296D01*
X190842393Y-118645487D01*
X190814040Y-118654812D01*
X190785107Y-118663266D01*
X190755597Y-118670845D01*
X190725517Y-118677547D01*
X190694870Y-118683367D01*
X190663662Y-118688302D01*
X190631898Y-118692347D01*
X190599582Y-118695500D01*
X190566719Y-118697757D01*
X190533314Y-118699114D01*
X190499371Y-118699567D01*
G37*
G36*
X186487438Y-116377794D02*
G01*
X187533775Y-117818339D01*
X188581088Y-116377794D01*
X188629448Y-116377794D01*
X188629448Y-118660000D01*
X188155129Y-118660000D01*
X188155129Y-117738227D01*
X187543056Y-118623363D01*
X187524005Y-118623363D01*
X186913398Y-117738715D01*
X186913398Y-118660000D01*
X186439078Y-118660000D01*
X186439078Y-116377794D01*
X186487438Y-116377794D01*
G37*
G36*
X185242288Y-118702498D02*
G01*
X185197986Y-118701413D01*
X185154235Y-118698190D01*
X185111092Y-118692872D01*
X185068612Y-118685505D01*
X185026851Y-118676133D01*
X184985866Y-118664801D01*
X184945713Y-118651555D01*
X184906447Y-118636438D01*
X184868125Y-118619495D01*
X184830803Y-118600773D01*
X184794537Y-118580314D01*
X184759383Y-118558165D01*
X184725397Y-118534369D01*
X184692636Y-118508972D01*
X184661154Y-118482018D01*
X184631010Y-118453553D01*
X184602257Y-118423621D01*
X184574953Y-118392267D01*
X184549154Y-118359536D01*
X184524916Y-118325472D01*
X184502294Y-118290120D01*
X184481345Y-118253526D01*
X184462125Y-118215733D01*
X184444690Y-118176788D01*
X184429097Y-118136734D01*
X184415400Y-118095616D01*
X184403657Y-118053480D01*
X184393923Y-118010370D01*
X184386255Y-117966330D01*
X184380708Y-117921407D01*
X184377339Y-117875643D01*
X184376203Y-117829085D01*
X184376203Y-116440321D01*
X184853454Y-116440321D01*
X184853454Y-117827620D01*
X184853984Y-117848952D01*
X184855556Y-117869887D01*
X184858141Y-117890409D01*
X184861709Y-117910496D01*
X184866233Y-117930133D01*
X184871682Y-117949299D01*
X184878029Y-117967977D01*
X184885244Y-117986149D01*
X184902162Y-118020897D01*
X184922207Y-118053398D01*
X184945147Y-118083502D01*
X184970751Y-118111064D01*
X184998788Y-118135935D01*
X185029027Y-118157968D01*
X185061237Y-118177016D01*
X185095186Y-118192931D01*
X185130643Y-118205566D01*
X185167377Y-118214773D01*
X185205158Y-118220406D01*
X185243754Y-118222316D01*
X185282236Y-118220417D01*
X185319864Y-118214813D01*
X185356413Y-118205650D01*
X185391658Y-118193068D01*
X185425375Y-118177212D01*
X185457339Y-118158225D01*
X185487324Y-118136250D01*
X185515108Y-118111430D01*
X185540464Y-118083908D01*
X185563168Y-118053827D01*
X185582996Y-118021330D01*
X185599723Y-117986561D01*
X185606853Y-117968369D01*
X185613123Y-117949662D01*
X185618506Y-117930459D01*
X185622973Y-117910777D01*
X185626497Y-117890634D01*
X185629048Y-117870048D01*
X185630600Y-117849038D01*
X185631123Y-117827620D01*
X185631123Y-116440321D01*
X186108374Y-116440321D01*
X186108374Y-117829085D01*
X186107238Y-117875643D01*
X186103869Y-117921407D01*
X186098322Y-117966330D01*
X186090654Y-118010370D01*
X186080920Y-118053480D01*
X186069176Y-118095616D01*
X186055480Y-118136734D01*
X186039886Y-118176788D01*
X186022452Y-118215733D01*
X186003232Y-118253526D01*
X185982283Y-118290120D01*
X185959661Y-118325472D01*
X185935423Y-118359536D01*
X185909623Y-118392267D01*
X185882320Y-118423621D01*
X185853567Y-118453553D01*
X185823422Y-118482018D01*
X185791941Y-118508972D01*
X185759180Y-118534369D01*
X185725194Y-118558165D01*
X185690040Y-118580314D01*
X185653774Y-118600773D01*
X185616452Y-118619495D01*
X185578130Y-118636438D01*
X185538864Y-118651555D01*
X185498711Y-118664801D01*
X185457726Y-118676133D01*
X185415965Y-118685505D01*
X185373485Y-118692872D01*
X185330341Y-118698190D01*
X185286591Y-118701413D01*
X185242288Y-118702498D01*
G37*
G36*
X184044033Y-118660000D02*
G01*
X183569713Y-118660000D01*
X183569713Y-117662512D01*
X182892184Y-118660000D01*
X182311863Y-118660000D01*
X182943963Y-117783656D01*
X182923352Y-117775908D01*
X182903026Y-117767153D01*
X182883008Y-117757418D01*
X182863324Y-117746729D01*
X182843997Y-117735112D01*
X182825052Y-117722593D01*
X182806513Y-117709200D01*
X182788403Y-117694958D01*
X182770749Y-117679894D01*
X182753572Y-117664034D01*
X182736899Y-117647405D01*
X182720753Y-117630032D01*
X182705158Y-117611943D01*
X182690139Y-117593164D01*
X182675719Y-117573721D01*
X182661924Y-117553640D01*
X182648777Y-117532949D01*
X182636302Y-117511673D01*
X182624524Y-117489838D01*
X182613467Y-117467471D01*
X182603156Y-117444599D01*
X182593614Y-117421248D01*
X182584865Y-117397444D01*
X182576935Y-117373214D01*
X182569847Y-117348583D01*
X182563625Y-117323579D01*
X182558294Y-117298228D01*
X182553878Y-117272556D01*
X182550401Y-117246590D01*
X182547887Y-117220355D01*
X182546361Y-117193879D01*
X182545903Y-117170118D01*
X183033845Y-117170118D01*
X183035273Y-117197600D01*
X183039458Y-117224100D01*
X183046248Y-117249506D01*
X183055491Y-117273708D01*
X183067034Y-117296593D01*
X183080728Y-117318049D01*
X183096419Y-117337966D01*
X183113956Y-117356231D01*
X183133188Y-117372733D01*
X183153962Y-117387361D01*
X183176128Y-117400002D01*
X183199533Y-117410545D01*
X183224025Y-117418878D01*
X183249454Y-117424890D01*
X183275666Y-117428469D01*
X183302512Y-117429504D01*
X183571179Y-117428039D01*
X183571179Y-116910732D01*
X183302512Y-116910732D01*
X183275908Y-116912008D01*
X183249875Y-116915767D01*
X183224570Y-116921902D01*
X183200151Y-116930310D01*
X183176777Y-116940884D01*
X183154606Y-116953520D01*
X183133797Y-116968112D01*
X183114506Y-116984555D01*
X183096892Y-117002744D01*
X183081114Y-117022574D01*
X183067330Y-117043939D01*
X183055697Y-117066735D01*
X183046374Y-117090856D01*
X183039518Y-117116197D01*
X183035289Y-117142653D01*
X183033845Y-117170118D01*
X182545903Y-117170118D01*
X182545847Y-117167187D01*
X182546855Y-117129860D01*
X182549844Y-117093014D01*
X182554765Y-117056696D01*
X182561566Y-117020951D01*
X182570197Y-116985825D01*
X182580607Y-116951366D01*
X182592747Y-116917618D01*
X182606565Y-116884629D01*
X182622010Y-116852444D01*
X182639034Y-116821109D01*
X182657583Y-116790671D01*
X182677610Y-116761175D01*
X182699062Y-116732669D01*
X182721889Y-116705198D01*
X182746041Y-116678807D01*
X182771467Y-116653545D01*
X182798116Y-116629455D01*
X182825939Y-116606585D01*
X182854884Y-116584982D01*
X182884901Y-116564690D01*
X182915940Y-116545756D01*
X182947949Y-116528226D01*
X182980879Y-116512147D01*
X183014679Y-116497565D01*
X183049298Y-116484525D01*
X183084686Y-116473074D01*
X183120792Y-116463259D01*
X183157566Y-116455124D01*
X183194957Y-116448717D01*
X183232915Y-116444083D01*
X183271388Y-116441269D01*
X183310327Y-116440321D01*
X184045498Y-116440321D01*
X184044033Y-118660000D01*
G37*
G36*
X182148220Y-118660000D02*
G01*
X181673900Y-118660000D01*
X181673900Y-116440321D01*
X182148220Y-116440321D01*
X182148220Y-118660000D01*
G37*
G36*
X180849337Y-118188611D02*
G01*
X180849337Y-116440321D01*
X181323656Y-116440321D01*
X181323656Y-118660000D01*
X179963224Y-118660000D01*
X179963224Y-118188611D01*
X180849337Y-118188611D01*
G37*
G36*
X178808669Y-116379324D02*
G01*
X178867274Y-116383864D01*
X178925074Y-116391338D01*
X178981994Y-116401671D01*
X179037959Y-116414786D01*
X179092892Y-116430609D01*
X179146718Y-116449063D01*
X179199362Y-116470072D01*
X179250746Y-116493562D01*
X179300796Y-116519456D01*
X179349437Y-116547679D01*
X179396591Y-116578156D01*
X179442183Y-116610809D01*
X179486138Y-116645564D01*
X179528380Y-116682346D01*
X179568832Y-116721078D01*
X179607420Y-116761684D01*
X179644068Y-116804090D01*
X179678699Y-116848219D01*
X179711238Y-116893996D01*
X179741610Y-116941345D01*
X179769738Y-116990190D01*
X179795546Y-117040456D01*
X179818960Y-117092067D01*
X179839903Y-117144948D01*
X179858299Y-117199022D01*
X179874073Y-117254214D01*
X179887149Y-117310449D01*
X179897450Y-117367650D01*
X179904903Y-117425743D01*
X179909430Y-117484651D01*
X179910956Y-117544298D01*
X179909430Y-117603449D01*
X179904903Y-117661875D01*
X179897452Y-117719499D01*
X179887151Y-117776248D01*
X179874078Y-117832044D01*
X179858309Y-117886813D01*
X179839918Y-117940478D01*
X179818983Y-117992965D01*
X179795579Y-118044197D01*
X179769782Y-118094099D01*
X179741669Y-118142596D01*
X179711316Y-118189612D01*
X179678797Y-118235071D01*
X179644191Y-118278897D01*
X179607571Y-118321016D01*
X179569016Y-118361352D01*
X179528599Y-118399828D01*
X179486399Y-118436370D01*
X179442490Y-118470901D01*
X179396948Y-118503347D01*
X179349851Y-118533632D01*
X179301273Y-118561679D01*
X179251290Y-118587415D01*
X179199980Y-118610762D01*
X179147417Y-118631645D01*
X179093678Y-118649989D01*
X179038839Y-118665719D01*
X178982976Y-118678758D01*
X178926164Y-118689031D01*
X178868481Y-118696462D01*
X178810002Y-118700976D01*
X178750802Y-118702498D01*
X178691333Y-118700976D01*
X178632596Y-118696462D01*
X178574666Y-118689031D01*
X178517619Y-118678758D01*
X178461530Y-118665719D01*
X178406477Y-118649989D01*
X178352534Y-118631645D01*
X178299777Y-118610762D01*
X178248283Y-118587415D01*
X178198126Y-118561679D01*
X178149384Y-118533632D01*
X178102131Y-118503347D01*
X178056444Y-118470901D01*
X178012399Y-118436370D01*
X177970070Y-118399828D01*
X177929535Y-118361352D01*
X177890869Y-118321016D01*
X177854148Y-118278897D01*
X177819448Y-118235071D01*
X177786844Y-118189612D01*
X177756413Y-118142596D01*
X177728230Y-118094099D01*
X177702371Y-118044197D01*
X177678912Y-117992965D01*
X177657929Y-117940478D01*
X177639497Y-117886813D01*
X177623693Y-117832044D01*
X177610592Y-117776248D01*
X177600271Y-117719499D01*
X177592805Y-117661875D01*
X177588269Y-117603449D01*
X177586741Y-117544298D01*
X177586816Y-117541367D01*
X178066434Y-117541367D01*
X178067321Y-117576500D01*
X178069955Y-117611161D01*
X178074293Y-117645308D01*
X178080292Y-117678899D01*
X178087911Y-117711892D01*
X178097107Y-117744244D01*
X178107838Y-117775914D01*
X178120060Y-117806859D01*
X178133732Y-117837037D01*
X178148812Y-117866406D01*
X178165256Y-117894923D01*
X178183023Y-117922546D01*
X178202070Y-117949234D01*
X178222355Y-117974943D01*
X178243835Y-117999632D01*
X178266468Y-118023258D01*
X178290212Y-118045780D01*
X178315024Y-118067154D01*
X178340861Y-118087340D01*
X178367682Y-118106293D01*
X178395444Y-118123973D01*
X178424105Y-118140338D01*
X178453621Y-118155344D01*
X178483951Y-118168949D01*
X178515053Y-118181112D01*
X178546884Y-118191791D01*
X178579401Y-118200942D01*
X178612562Y-118208524D01*
X178646326Y-118214495D01*
X178680648Y-118218812D01*
X178715488Y-118221433D01*
X178750802Y-118222316D01*
X178785979Y-118221433D01*
X178820681Y-118218812D01*
X178854867Y-118214495D01*
X178888495Y-118208524D01*
X178921522Y-118200942D01*
X178953906Y-118191791D01*
X178985605Y-118181112D01*
X179016576Y-118168949D01*
X179046779Y-118155344D01*
X179076170Y-118140338D01*
X179104708Y-118123973D01*
X179132350Y-118106293D01*
X179159055Y-118087340D01*
X179184779Y-118067154D01*
X179209482Y-118045780D01*
X179233121Y-118023258D01*
X179255653Y-117999632D01*
X179277037Y-117974943D01*
X179297230Y-117949234D01*
X179316191Y-117922546D01*
X179333877Y-117894923D01*
X179350246Y-117866406D01*
X179365256Y-117837037D01*
X179378865Y-117806859D01*
X179391031Y-117775914D01*
X179401711Y-117744244D01*
X179410863Y-117711892D01*
X179418447Y-117678899D01*
X179424418Y-117645308D01*
X179428735Y-117611161D01*
X179431356Y-117576500D01*
X179432240Y-117541367D01*
X179431356Y-117506009D01*
X179428735Y-117471128D01*
X179424418Y-117436766D01*
X179418447Y-117402966D01*
X179410863Y-117369771D01*
X179401711Y-117337223D01*
X179391031Y-117305363D01*
X179378865Y-117274234D01*
X179365256Y-117243879D01*
X179350246Y-117214340D01*
X179333877Y-117185659D01*
X179316191Y-117157878D01*
X179297230Y-117131040D01*
X179277037Y-117105188D01*
X179255653Y-117080362D01*
X179233121Y-117056606D01*
X179209482Y-117033962D01*
X179184779Y-117012473D01*
X179159055Y-116992180D01*
X179132350Y-116973126D01*
X179104708Y-116955353D01*
X179076170Y-116938904D01*
X179046779Y-116923820D01*
X179016576Y-116910145D01*
X178985605Y-116897920D01*
X178953906Y-116887187D01*
X178921522Y-116877990D01*
X178888495Y-116870370D01*
X178854867Y-116864370D01*
X178820681Y-116860032D01*
X178785979Y-116857398D01*
X178750802Y-116856510D01*
X178715488Y-116857398D01*
X178680648Y-116860032D01*
X178646326Y-116864370D01*
X178612562Y-116870370D01*
X178579401Y-116877990D01*
X178546884Y-116887187D01*
X178515053Y-116897920D01*
X178483951Y-116910145D01*
X178453621Y-116923820D01*
X178424105Y-116938904D01*
X178395444Y-116955353D01*
X178367682Y-116973126D01*
X178340861Y-116992180D01*
X178315024Y-117012473D01*
X178290212Y-117033962D01*
X178266468Y-117056606D01*
X178243835Y-117080362D01*
X178222355Y-117105188D01*
X178202070Y-117131040D01*
X178183023Y-117157878D01*
X178165256Y-117185659D01*
X178148812Y-117214340D01*
X178133732Y-117243879D01*
X178120060Y-117274234D01*
X178107838Y-117305363D01*
X178097107Y-117337223D01*
X178087911Y-117369771D01*
X178080292Y-117402966D01*
X178074293Y-117436766D01*
X178069955Y-117471128D01*
X178067321Y-117506009D01*
X178066434Y-117541367D01*
X177586816Y-117541367D01*
X177588269Y-117484651D01*
X177592804Y-117425743D01*
X177600270Y-117367650D01*
X177610590Y-117310449D01*
X177623687Y-117254214D01*
X177639487Y-117199022D01*
X177657913Y-117144948D01*
X177678889Y-117092067D01*
X177702338Y-117040456D01*
X177728185Y-116990190D01*
X177756353Y-116941345D01*
X177786767Y-116893996D01*
X177819350Y-116848219D01*
X177854026Y-116804090D01*
X177890719Y-116761684D01*
X177929352Y-116721078D01*
X177969851Y-116682346D01*
X178012138Y-116645564D01*
X178056137Y-116610809D01*
X178101773Y-116578156D01*
X178148970Y-116547679D01*
X178197650Y-116519456D01*
X178247738Y-116493562D01*
X178299159Y-116470072D01*
X178351835Y-116449063D01*
X178405691Y-116430609D01*
X178460650Y-116414786D01*
X178516637Y-116401671D01*
X178573575Y-116391338D01*
X178631389Y-116383864D01*
X178690001Y-116379324D01*
X178749337Y-116377794D01*
X178808669Y-116379324D01*
G37*
G36*
X176513049Y-118660000D02*
G01*
X176038729Y-118660000D01*
X176038729Y-117941926D01*
X175723656Y-117941926D01*
X175683266Y-117940931D01*
X175643371Y-117937981D01*
X175604023Y-117933126D01*
X175565273Y-117926417D01*
X175527174Y-117917906D01*
X175489776Y-117907642D01*
X175453131Y-117895678D01*
X175417292Y-117882063D01*
X175382309Y-117866849D01*
X175348234Y-117850087D01*
X175315118Y-117831827D01*
X175283014Y-117812121D01*
X175251973Y-117791019D01*
X175222047Y-117768572D01*
X175193287Y-117744831D01*
X175165744Y-117719848D01*
X175139471Y-117693672D01*
X175114519Y-117666355D01*
X175090940Y-117637947D01*
X175068785Y-117608501D01*
X175048105Y-117578065D01*
X175028954Y-117546692D01*
X175011381Y-117514433D01*
X174995438Y-117481337D01*
X174981179Y-117447456D01*
X174968653Y-117412842D01*
X174957912Y-117377544D01*
X174949008Y-117341614D01*
X174941994Y-117305102D01*
X174936919Y-117268060D01*
X174933837Y-117230539D01*
X174932798Y-117192588D01*
X174932905Y-117188681D01*
X175406629Y-117188681D01*
X175408236Y-117218052D01*
X175412958Y-117246538D01*
X175420649Y-117273996D01*
X175431160Y-117300284D01*
X175444345Y-117325262D01*
X175460055Y-117348787D01*
X175478144Y-117370719D01*
X175498464Y-117390914D01*
X175520868Y-117409231D01*
X175545208Y-117425529D01*
X175571337Y-117439667D01*
X175599108Y-117451501D01*
X175628372Y-117460891D01*
X175658983Y-117467696D01*
X175690794Y-117471772D01*
X175723656Y-117472979D01*
X176038729Y-117471514D01*
X176038729Y-116910732D01*
X175723656Y-116910732D01*
X175690794Y-116912147D01*
X175658983Y-116916304D01*
X175628372Y-116923071D01*
X175599108Y-116932317D01*
X175571337Y-116943910D01*
X175545208Y-116957718D01*
X175520868Y-116973610D01*
X175498464Y-116991454D01*
X175478144Y-117011119D01*
X175460055Y-117032472D01*
X175444345Y-117055382D01*
X175431160Y-117079718D01*
X175420649Y-117105347D01*
X175412958Y-117132138D01*
X175408236Y-117159960D01*
X175406629Y-117188681D01*
X174932905Y-117188681D01*
X174933837Y-117154501D01*
X174936919Y-117116842D01*
X174941994Y-117079664D01*
X174949008Y-117043016D01*
X174957912Y-117006952D01*
X174968653Y-116971521D01*
X174981179Y-116936774D01*
X174995438Y-116902764D01*
X175011381Y-116869541D01*
X175028954Y-116837156D01*
X175048105Y-116805660D01*
X175068785Y-116775105D01*
X175090940Y-116745542D01*
X175114519Y-116717021D01*
X175139471Y-116689595D01*
X175165744Y-116663314D01*
X175193287Y-116638230D01*
X175222047Y-116614393D01*
X175251973Y-116591854D01*
X175283014Y-116570666D01*
X175315118Y-116550879D01*
X175348234Y-116532544D01*
X175382309Y-116515712D01*
X175417292Y-116500435D01*
X175453131Y-116486763D01*
X175489776Y-116474749D01*
X175527174Y-116464442D01*
X175565273Y-116455895D01*
X175604023Y-116449158D01*
X175643371Y-116444282D01*
X175683266Y-116441319D01*
X175723656Y-116440321D01*
X176513049Y-116440321D01*
X176513049Y-118660000D01*
G37*
G36*
X174713956Y-118660000D02*
G01*
X174239637Y-118660000D01*
X174239637Y-117662512D01*
X173562107Y-118660000D01*
X172981786Y-118660000D01*
X173613886Y-117783656D01*
X173593275Y-117775908D01*
X173572949Y-117767153D01*
X173552931Y-117757418D01*
X173533247Y-117746729D01*
X173513920Y-117735112D01*
X173494975Y-117722593D01*
X173476436Y-117709200D01*
X173458327Y-117694958D01*
X173440672Y-117679894D01*
X173423496Y-117664034D01*
X173406822Y-117647405D01*
X173390676Y-117630032D01*
X173375081Y-117611943D01*
X173360062Y-117593164D01*
X173345642Y-117573721D01*
X173331847Y-117553640D01*
X173318700Y-117532949D01*
X173306225Y-117511673D01*
X173294447Y-117489838D01*
X173283391Y-117467471D01*
X173273079Y-117444599D01*
X173263537Y-117421248D01*
X173254789Y-117397444D01*
X173246858Y-117373214D01*
X173239770Y-117348583D01*
X173233548Y-117323579D01*
X173228217Y-117298228D01*
X173223801Y-117272556D01*
X173220324Y-117246590D01*
X173217811Y-117220355D01*
X173216285Y-117193879D01*
X173215827Y-117170118D01*
X173703768Y-117170118D01*
X173705197Y-117197600D01*
X173709382Y-117224100D01*
X173716171Y-117249506D01*
X173725414Y-117273708D01*
X173736958Y-117296593D01*
X173750651Y-117318049D01*
X173766342Y-117337966D01*
X173783879Y-117356231D01*
X173803111Y-117372733D01*
X173823886Y-117387361D01*
X173846051Y-117400002D01*
X173869456Y-117410545D01*
X173893949Y-117418878D01*
X173919377Y-117424890D01*
X173945590Y-117428469D01*
X173972435Y-117429504D01*
X174241102Y-117428039D01*
X174241102Y-116910732D01*
X173972435Y-116910732D01*
X173945831Y-116912008D01*
X173919798Y-116915767D01*
X173894493Y-116921902D01*
X173870074Y-116930310D01*
X173846701Y-116940884D01*
X173824530Y-116953520D01*
X173803720Y-116968112D01*
X173784429Y-116984555D01*
X173766816Y-117002744D01*
X173751037Y-117022574D01*
X173737253Y-117043939D01*
X173725620Y-117066735D01*
X173716297Y-117090856D01*
X173709442Y-117116197D01*
X173705213Y-117142653D01*
X173703768Y-117170118D01*
X173215827Y-117170118D01*
X173215771Y-117167187D01*
X173216778Y-117129860D01*
X173219768Y-117093014D01*
X173224688Y-117056696D01*
X173231489Y-117020951D01*
X173240120Y-116985825D01*
X173250530Y-116951366D01*
X173262670Y-116917618D01*
X173276488Y-116884629D01*
X173291934Y-116852444D01*
X173308957Y-116821109D01*
X173327507Y-116790671D01*
X173347533Y-116761175D01*
X173368985Y-116732669D01*
X173391812Y-116705198D01*
X173415964Y-116678807D01*
X173441390Y-116653545D01*
X173468040Y-116629455D01*
X173495862Y-116606585D01*
X173524807Y-116584982D01*
X173554825Y-116564690D01*
X173585863Y-116545756D01*
X173617873Y-116528226D01*
X173650803Y-116512147D01*
X173684602Y-116497565D01*
X173719221Y-116484525D01*
X173754609Y-116473074D01*
X173790715Y-116463259D01*
X173827489Y-116455124D01*
X173864880Y-116448717D01*
X173902838Y-116444083D01*
X173941311Y-116441269D01*
X173980251Y-116440321D01*
X174715422Y-116440321D01*
X174713956Y-118660000D01*
G37*
G36*
X172989602Y-118660000D02*
G01*
X172476203Y-118660000D01*
X172335519Y-118349811D01*
X171474319Y-118349811D01*
X171334612Y-118660000D01*
X170820237Y-118660000D01*
X171156984Y-117940949D01*
X171660432Y-117940949D01*
X172148918Y-117940949D01*
X171904187Y-117408988D01*
X171660432Y-117940949D01*
X171156984Y-117940949D01*
X171889043Y-116377794D01*
X171922260Y-116377794D01*
X172989602Y-118660000D01*
G37*
G36*
X170641451Y-116426643D02*
G01*
X170641451Y-118660000D01*
X169984438Y-118660000D01*
X169917882Y-118658762D01*
X169852966Y-118655069D01*
X169789720Y-118648949D01*
X169728176Y-118640431D01*
X169668365Y-118629544D01*
X169610318Y-118616317D01*
X169554065Y-118600778D01*
X169499639Y-118582956D01*
X169447069Y-118562880D01*
X169396387Y-118540579D01*
X169347624Y-118516082D01*
X169300811Y-118489417D01*
X169255979Y-118460613D01*
X169213159Y-118429699D01*
X169172382Y-118396704D01*
X169133679Y-118361657D01*
X169097081Y-118324586D01*
X169062620Y-118285520D01*
X169030326Y-118244488D01*
X169000230Y-118201519D01*
X168972363Y-118156642D01*
X168946757Y-118109885D01*
X168923442Y-118061277D01*
X168902450Y-118010848D01*
X168883811Y-117958625D01*
X168867556Y-117904638D01*
X168853717Y-117848915D01*
X168842325Y-117791485D01*
X168833410Y-117732378D01*
X168827004Y-117671621D01*
X168823137Y-117609244D01*
X168821842Y-117545275D01*
X168821871Y-117543810D01*
X169300069Y-117543810D01*
X169300812Y-117581155D01*
X169303032Y-117617528D01*
X169306712Y-117652913D01*
X169311839Y-117687299D01*
X169318396Y-117720669D01*
X169326370Y-117753011D01*
X169335745Y-117784310D01*
X169346506Y-117814553D01*
X169358638Y-117843725D01*
X169372126Y-117871813D01*
X169386955Y-117898803D01*
X169403109Y-117924680D01*
X169420575Y-117949431D01*
X169439336Y-117973041D01*
X169459379Y-117995498D01*
X169480687Y-118016786D01*
X169503246Y-118036892D01*
X169527041Y-118055802D01*
X169552056Y-118073502D01*
X169578277Y-118089979D01*
X169605689Y-118105217D01*
X169634277Y-118119203D01*
X169664025Y-118131924D01*
X169694918Y-118143365D01*
X169726943Y-118153512D01*
X169760083Y-118162351D01*
X169794323Y-118169869D01*
X169829649Y-118176051D01*
X169866045Y-118180884D01*
X169903497Y-118184353D01*
X169941989Y-118186445D01*
X169981507Y-118187145D01*
X170168597Y-118187145D01*
X170168597Y-116895101D01*
X169985903Y-116895101D01*
X169946115Y-116895810D01*
X169907361Y-116897926D01*
X169869656Y-116901436D01*
X169833015Y-116906325D01*
X169797453Y-116912578D01*
X169762985Y-116920181D01*
X169729626Y-116929119D01*
X169697391Y-116939377D01*
X169666296Y-116950941D01*
X169636354Y-116963797D01*
X169607582Y-116977929D01*
X169579994Y-116993324D01*
X169553606Y-117009965D01*
X169528432Y-117027840D01*
X169504487Y-117046934D01*
X169481786Y-117067231D01*
X169460345Y-117088717D01*
X169440178Y-117111378D01*
X169421300Y-117135199D01*
X169403727Y-117160166D01*
X169387474Y-117186264D01*
X169372555Y-117213478D01*
X169358986Y-117241794D01*
X169346781Y-117271197D01*
X169335955Y-117301672D01*
X169326525Y-117333206D01*
X169318504Y-117365783D01*
X169311907Y-117399389D01*
X169306751Y-117434009D01*
X169303049Y-117469629D01*
X169300817Y-117506234D01*
X169300069Y-117543810D01*
X168821871Y-117543810D01*
X168823137Y-117480943D01*
X168827004Y-117418209D01*
X168833410Y-117357102D01*
X168842325Y-117297652D01*
X168853717Y-117239888D01*
X168867556Y-117183840D01*
X168883811Y-117129537D01*
X168902450Y-117077008D01*
X168923442Y-117026283D01*
X168946757Y-116977392D01*
X168972363Y-116930363D01*
X169000230Y-116885227D01*
X169030326Y-116842012D01*
X169062620Y-116800748D01*
X169097081Y-116761465D01*
X169133679Y-116724192D01*
X169172382Y-116688958D01*
X169213159Y-116655792D01*
X169255979Y-116624725D01*
X169300811Y-116595786D01*
X169347624Y-116569003D01*
X169396387Y-116544407D01*
X169447069Y-116522027D01*
X169499639Y-116501893D01*
X169554065Y-116484033D01*
X169610318Y-116468477D01*
X169668365Y-116455255D01*
X169728176Y-116444395D01*
X169789720Y-116435929D01*
X169852966Y-116429884D01*
X169917882Y-116426290D01*
X169984438Y-116425177D01*
X170641451Y-116426643D01*
G37*
G36*
X167559821Y-116379324D02*
G01*
X167618425Y-116383864D01*
X167676225Y-116391338D01*
X167733146Y-116401671D01*
X167789110Y-116414786D01*
X167844044Y-116430609D01*
X167897870Y-116449063D01*
X167950513Y-116470072D01*
X168001898Y-116493562D01*
X168051948Y-116519456D01*
X168100588Y-116547679D01*
X168147742Y-116578156D01*
X168193334Y-116610809D01*
X168237289Y-116645564D01*
X168279531Y-116682346D01*
X168319984Y-116721078D01*
X168358572Y-116761684D01*
X168395219Y-116804090D01*
X168429851Y-116848219D01*
X168462390Y-116893996D01*
X168492761Y-116941345D01*
X168520889Y-116990190D01*
X168546698Y-117040456D01*
X168570111Y-117092067D01*
X168591054Y-117144948D01*
X168609450Y-117199022D01*
X168625224Y-117254214D01*
X168638300Y-117310449D01*
X168648602Y-117367650D01*
X168656054Y-117425743D01*
X168660581Y-117484651D01*
X168662107Y-117544298D01*
X168660581Y-117603449D01*
X168656055Y-117661875D01*
X168648603Y-117719499D01*
X168638303Y-117776248D01*
X168625230Y-117832044D01*
X168609460Y-117886813D01*
X168591069Y-117940478D01*
X168570134Y-117992965D01*
X168546730Y-118044197D01*
X168520934Y-118094099D01*
X168492821Y-118142596D01*
X168462467Y-118189612D01*
X168429949Y-118235071D01*
X168395342Y-118278897D01*
X168358723Y-118321016D01*
X168320167Y-118361352D01*
X168279751Y-118399828D01*
X168237550Y-118436370D01*
X168193641Y-118470901D01*
X168148100Y-118503347D01*
X168101002Y-118533632D01*
X168052424Y-118561679D01*
X168002442Y-118587415D01*
X167951131Y-118610762D01*
X167898569Y-118631645D01*
X167844830Y-118649989D01*
X167789991Y-118665719D01*
X167734127Y-118678758D01*
X167677316Y-118689031D01*
X167619632Y-118696462D01*
X167561153Y-118700976D01*
X167501953Y-118702498D01*
X167442485Y-118700976D01*
X167383748Y-118696462D01*
X167325817Y-118689031D01*
X167268770Y-118678758D01*
X167212682Y-118665719D01*
X167157628Y-118649989D01*
X167103685Y-118631645D01*
X167050928Y-118610762D01*
X166999434Y-118587415D01*
X166949278Y-118561679D01*
X166900535Y-118533632D01*
X166853283Y-118503347D01*
X166807596Y-118470901D01*
X166763550Y-118436370D01*
X166721222Y-118399828D01*
X166680687Y-118361352D01*
X166642021Y-118321016D01*
X166605300Y-118278897D01*
X166570599Y-118235071D01*
X166537996Y-118189612D01*
X166507564Y-118142596D01*
X166479381Y-118094099D01*
X166453522Y-118044197D01*
X166430063Y-117992965D01*
X166409080Y-117940478D01*
X166390648Y-117886813D01*
X166374844Y-117832044D01*
X166361744Y-117776248D01*
X166351422Y-117719499D01*
X166343956Y-117661875D01*
X166339421Y-117603449D01*
X166337892Y-117544298D01*
X166337967Y-117541367D01*
X166817585Y-117541367D01*
X166818472Y-117576500D01*
X166821106Y-117611161D01*
X166825444Y-117645308D01*
X166831444Y-117678899D01*
X166839063Y-117711892D01*
X166848259Y-117744244D01*
X166858989Y-117775914D01*
X166871212Y-117806859D01*
X166884884Y-117837037D01*
X166899963Y-117866406D01*
X166916408Y-117894923D01*
X166934175Y-117922546D01*
X166953222Y-117949234D01*
X166973507Y-117974943D01*
X166994987Y-117999632D01*
X167017620Y-118023258D01*
X167041364Y-118045780D01*
X167066175Y-118067154D01*
X167092013Y-118087340D01*
X167118834Y-118106293D01*
X167146596Y-118123973D01*
X167175256Y-118140338D01*
X167204773Y-118155344D01*
X167235103Y-118168949D01*
X167266205Y-118181112D01*
X167298035Y-118191791D01*
X167330552Y-118200942D01*
X167363714Y-118208524D01*
X167397477Y-118214495D01*
X167431800Y-118218812D01*
X167466639Y-118221433D01*
X167501953Y-118222316D01*
X167537130Y-118221433D01*
X167571833Y-118218812D01*
X167606019Y-118214495D01*
X167639646Y-118208524D01*
X167672673Y-118200942D01*
X167705057Y-118191791D01*
X167736756Y-118181112D01*
X167767728Y-118168949D01*
X167797930Y-118155344D01*
X167827322Y-118140338D01*
X167855860Y-118123973D01*
X167883502Y-118106293D01*
X167910206Y-118087340D01*
X167935931Y-118067154D01*
X167960634Y-118045780D01*
X167984272Y-118023258D01*
X168006804Y-117999632D01*
X168028188Y-117974943D01*
X168048382Y-117949234D01*
X168067342Y-117922546D01*
X168085028Y-117894923D01*
X168101397Y-117866406D01*
X168116407Y-117837037D01*
X168130016Y-117806859D01*
X168142182Y-117775914D01*
X168152862Y-117744244D01*
X168162015Y-117711892D01*
X168169598Y-117678899D01*
X168175569Y-117645308D01*
X168179887Y-117611161D01*
X168182508Y-117576500D01*
X168183391Y-117541367D01*
X168182508Y-117506009D01*
X168179887Y-117471128D01*
X168175569Y-117436766D01*
X168169598Y-117402966D01*
X168162015Y-117369771D01*
X168152862Y-117337223D01*
X168142182Y-117305363D01*
X168130016Y-117274234D01*
X168116407Y-117243879D01*
X168101397Y-117214340D01*
X168085028Y-117185659D01*
X168067342Y-117157878D01*
X168048382Y-117131040D01*
X168028188Y-117105188D01*
X168006804Y-117080362D01*
X167984272Y-117056606D01*
X167960634Y-117033962D01*
X167935931Y-117012473D01*
X167910206Y-116992180D01*
X167883502Y-116973126D01*
X167855860Y-116955353D01*
X167827322Y-116938904D01*
X167797930Y-116923820D01*
X167767728Y-116910145D01*
X167736756Y-116897920D01*
X167705057Y-116887187D01*
X167672673Y-116877990D01*
X167639646Y-116870370D01*
X167606019Y-116864370D01*
X167571833Y-116860032D01*
X167537130Y-116857398D01*
X167501953Y-116856510D01*
X167466639Y-116857398D01*
X167431800Y-116860032D01*
X167397477Y-116864370D01*
X167363714Y-116870370D01*
X167330552Y-116877990D01*
X167298035Y-116887187D01*
X167266205Y-116897920D01*
X167235103Y-116910145D01*
X167204773Y-116923820D01*
X167175256Y-116938904D01*
X167146596Y-116955353D01*
X167118834Y-116973126D01*
X167092013Y-116992180D01*
X167066175Y-117012473D01*
X167041364Y-117033962D01*
X167017620Y-117056606D01*
X166994987Y-117080362D01*
X166973507Y-117105188D01*
X166953222Y-117131040D01*
X166934175Y-117157878D01*
X166916408Y-117185659D01*
X166899963Y-117214340D01*
X166884884Y-117243879D01*
X166871212Y-117274234D01*
X166858989Y-117305363D01*
X166848259Y-117337223D01*
X166839063Y-117369771D01*
X166831444Y-117402966D01*
X166825444Y-117436766D01*
X166821106Y-117471128D01*
X166818472Y-117506009D01*
X166817585Y-117541367D01*
X166337967Y-117541367D01*
X166339421Y-117484651D01*
X166343956Y-117425743D01*
X166351421Y-117367650D01*
X166361741Y-117310449D01*
X166374839Y-117254214D01*
X166390639Y-117199022D01*
X166409065Y-117144948D01*
X166430040Y-117092067D01*
X166453490Y-117040456D01*
X166479336Y-116990190D01*
X166507505Y-116941345D01*
X166537918Y-116893996D01*
X166570501Y-116848219D01*
X166605177Y-116804090D01*
X166641870Y-116761684D01*
X166680504Y-116721078D01*
X166721002Y-116682346D01*
X166763289Y-116645564D01*
X166807289Y-116610809D01*
X166852925Y-116578156D01*
X166900121Y-116547679D01*
X166948801Y-116519456D01*
X166998890Y-116493562D01*
X167050310Y-116470072D01*
X167102986Y-116449063D01*
X167156842Y-116430609D01*
X167211802Y-116414786D01*
X167267788Y-116401671D01*
X167324727Y-116391338D01*
X167382540Y-116383864D01*
X167441153Y-116379324D01*
X167500488Y-116377794D01*
X167559821Y-116379324D01*
G37*
G36*
X163903768Y-116882400D02*
G01*
X163903768Y-116409057D01*
X165264200Y-116409057D01*
X165264200Y-118660000D01*
X164789881Y-118660000D01*
X164789881Y-117757766D01*
X164029797Y-117757766D01*
X164029797Y-117284424D01*
X164789881Y-117284424D01*
X164789881Y-116882400D01*
X163903768Y-116882400D01*
G37*
G36*
X164132379Y-118660000D02*
G01*
X163618981Y-118660000D01*
X163478297Y-118349811D01*
X162617096Y-118349811D01*
X162477390Y-118660000D01*
X161963014Y-118660000D01*
X162299761Y-117940949D01*
X162803210Y-117940949D01*
X163291695Y-117940949D01*
X163046964Y-117408988D01*
X162803210Y-117940949D01*
X162299761Y-117940949D01*
X163031821Y-116377794D01*
X163065038Y-116377794D01*
X164132379Y-118660000D01*
G37*
G36*
X160916678Y-118698101D02*
G01*
X160885267Y-118697669D01*
X160854410Y-118696384D01*
X160824095Y-118694264D01*
X160794311Y-118691325D01*
X160765048Y-118687585D01*
X160736295Y-118683061D01*
X160708040Y-118677770D01*
X160680274Y-118671731D01*
X160652984Y-118664959D01*
X160626162Y-118657473D01*
X160599795Y-118649289D01*
X160573872Y-118640425D01*
X160548384Y-118630898D01*
X160523319Y-118620725D01*
X160498666Y-118609924D01*
X160474415Y-118598511D01*
X160450555Y-118586505D01*
X160427074Y-118573922D01*
X160403962Y-118560780D01*
X160381209Y-118547095D01*
X160358803Y-118532886D01*
X160336733Y-118518169D01*
X160314990Y-118502962D01*
X160293561Y-118487282D01*
X160272436Y-118471146D01*
X160251605Y-118454571D01*
X160231056Y-118437575D01*
X160210779Y-118420175D01*
X160190762Y-118402388D01*
X160170996Y-118384232D01*
X160151469Y-118365724D01*
X160132170Y-118346880D01*
X160404745Y-117963419D01*
X160419616Y-117977786D01*
X160434556Y-117991845D01*
X160449568Y-118005587D01*
X160464656Y-118019002D01*
X160479822Y-118032081D01*
X160495069Y-118044813D01*
X160510401Y-118057189D01*
X160525821Y-118069199D01*
X160556936Y-118092082D01*
X160588439Y-118113385D01*
X160620356Y-118133029D01*
X160652712Y-118150936D01*
X160685532Y-118167029D01*
X160718840Y-118181229D01*
X160752662Y-118193459D01*
X160787023Y-118203639D01*
X160821948Y-118211694D01*
X160857461Y-118217543D01*
X160893589Y-118221110D01*
X160930355Y-118222316D01*
X160961732Y-118221462D01*
X160993079Y-118218926D01*
X161024334Y-118214743D01*
X161055433Y-118208952D01*
X161086313Y-118201589D01*
X161116910Y-118192692D01*
X161147161Y-118182299D01*
X161177003Y-118170445D01*
X161206371Y-118157169D01*
X161235203Y-118142508D01*
X161263435Y-118126499D01*
X161291004Y-118109178D01*
X161317846Y-118090585D01*
X161343898Y-118070754D01*
X161369097Y-118049724D01*
X161393379Y-118027533D01*
X161416680Y-118004216D01*
X161438938Y-117979812D01*
X161460089Y-117954357D01*
X161480069Y-117927889D01*
X161498815Y-117900445D01*
X161516264Y-117872063D01*
X161532351Y-117842778D01*
X161547015Y-117812629D01*
X161560191Y-117781654D01*
X161571816Y-117749888D01*
X161581827Y-117717369D01*
X161590159Y-117684135D01*
X161596751Y-117650222D01*
X161601537Y-117615669D01*
X161604456Y-117580511D01*
X161605443Y-117544787D01*
X161604489Y-117509430D01*
X161601666Y-117474552D01*
X161597030Y-117440197D01*
X161590637Y-117406407D01*
X161582546Y-117373223D01*
X161572811Y-117340687D01*
X161561491Y-117308842D01*
X161548641Y-117277730D01*
X161534318Y-117247393D01*
X161518580Y-117217873D01*
X161501483Y-117189212D01*
X161483083Y-117161452D01*
X161463437Y-117134636D01*
X161442602Y-117108806D01*
X161420635Y-117084003D01*
X161397592Y-117060270D01*
X161373530Y-117037649D01*
X161348506Y-117016182D01*
X161322576Y-116995911D01*
X161295798Y-116976879D01*
X161268227Y-116959127D01*
X161239922Y-116942698D01*
X161210937Y-116927634D01*
X161181330Y-116913976D01*
X161151158Y-116901767D01*
X161120478Y-116891050D01*
X161089345Y-116881866D01*
X161057818Y-116874257D01*
X161025952Y-116868266D01*
X160993804Y-116863934D01*
X160961431Y-116861304D01*
X160928890Y-116860418D01*
X160894126Y-116861433D01*
X160859628Y-116864464D01*
X160825399Y-116869489D01*
X160791442Y-116876485D01*
X160757760Y-116885430D01*
X160724356Y-116896302D01*
X160691232Y-116909079D01*
X160658391Y-116923738D01*
X160625837Y-116940258D01*
X160593571Y-116958616D01*
X160561598Y-116978790D01*
X160529919Y-117000759D01*
X160514191Y-117012408D01*
X160498538Y-117024498D01*
X160482960Y-117037026D01*
X160467458Y-117049988D01*
X160452031Y-117063382D01*
X160436681Y-117077205D01*
X160421407Y-117091454D01*
X160406210Y-117106127D01*
X160132170Y-116735854D01*
X160154979Y-116713909D01*
X160177889Y-116692678D01*
X160200901Y-116672158D01*
X160224018Y-116652348D01*
X160247244Y-116633246D01*
X160270580Y-116614849D01*
X160294030Y-116597156D01*
X160317596Y-116580165D01*
X160341280Y-116563873D01*
X160365087Y-116548280D01*
X160389017Y-116533382D01*
X160413074Y-116519179D01*
X160437260Y-116505667D01*
X160461579Y-116492845D01*
X160486033Y-116480711D01*
X160510624Y-116469263D01*
X160535356Y-116458500D01*
X160560230Y-116448418D01*
X160585250Y-116439016D01*
X160610418Y-116430293D01*
X160635738Y-116422246D01*
X160661211Y-116414873D01*
X160686840Y-116408173D01*
X160712628Y-116402142D01*
X160738578Y-116396780D01*
X160764693Y-116392085D01*
X160790974Y-116388053D01*
X160817426Y-116384685D01*
X160844049Y-116381976D01*
X160870848Y-116379926D01*
X160897825Y-116378533D01*
X160924982Y-116377794D01*
X160983494Y-116379351D01*
X161041373Y-116383966D01*
X161098539Y-116391557D01*
X161154912Y-116402045D01*
X161210411Y-116415347D01*
X161264956Y-116431382D01*
X161318467Y-116450068D01*
X161370863Y-116471324D01*
X161422064Y-116495069D01*
X161471989Y-116521221D01*
X161520560Y-116549700D01*
X161567694Y-116580422D01*
X161613312Y-116613308D01*
X161657333Y-116648276D01*
X161699677Y-116685244D01*
X161740265Y-116724131D01*
X161779014Y-116764855D01*
X161815846Y-116807336D01*
X161850680Y-116851491D01*
X161883435Y-116897240D01*
X161914031Y-116944500D01*
X161942388Y-116993192D01*
X161968426Y-117043232D01*
X161992064Y-117094540D01*
X162013222Y-117147035D01*
X162031819Y-117200634D01*
X162047775Y-117255258D01*
X162061011Y-117310823D01*
X162071445Y-117367249D01*
X162078997Y-117424455D01*
X162083588Y-117482358D01*
X162085136Y-117540879D01*
X162083607Y-117599167D01*
X162079070Y-117656834D01*
X162071602Y-117713799D01*
X162061275Y-117769981D01*
X162048166Y-117825300D01*
X162032350Y-117879675D01*
X162013902Y-117933026D01*
X161992896Y-117985271D01*
X161969408Y-118036331D01*
X161943512Y-118086124D01*
X161915285Y-118134571D01*
X161884800Y-118181590D01*
X161852133Y-118227101D01*
X161817360Y-118271023D01*
X161780554Y-118313277D01*
X161741791Y-118353780D01*
X161701147Y-118392453D01*
X161658695Y-118429215D01*
X161614512Y-118463986D01*
X161568672Y-118496684D01*
X161521250Y-118527230D01*
X161472321Y-118555542D01*
X161421961Y-118581540D01*
X161370244Y-118605144D01*
X161317246Y-118626273D01*
X161263041Y-118644846D01*
X161207705Y-118660783D01*
X161151312Y-118674002D01*
X161093938Y-118684425D01*
X161035658Y-118691969D01*
X160976546Y-118696555D01*
X160916678Y-118698101D01*
G37*
G36*
X158686741Y-116440321D02*
G01*
X158686741Y-117314710D01*
X159447313Y-117314710D01*
X159447313Y-116440321D01*
X159920167Y-116440321D01*
X159920167Y-118660000D01*
X159447313Y-118660000D01*
X159447313Y-117784633D01*
X158686741Y-117784633D01*
X158686741Y-118660000D01*
X158213886Y-118660000D01*
X158213886Y-116440321D01*
X158686741Y-116440321D01*
G37*
G36*
X157862665Y-118660000D02*
G01*
X157388346Y-118660000D01*
X157388346Y-116440321D01*
X157862665Y-116440321D01*
X157862665Y-118660000D01*
G37*
G36*
X155710397Y-116409057D02*
G01*
X155710397Y-117626364D01*
X156994138Y-116373886D01*
X157038101Y-116373886D01*
X157038101Y-118660000D01*
X156563782Y-118660000D01*
X156563782Y-117442693D01*
X155277110Y-118691263D01*
X155234612Y-118691263D01*
X155234612Y-116409057D01*
X155710397Y-116409057D01*
G37*
G36*
X154884856Y-118660000D02*
G01*
X154410537Y-118660000D01*
X154410537Y-116440321D01*
X154884856Y-116440321D01*
X154884856Y-118660000D01*
G37*
G36*
X153337334Y-117784633D02*
G01*
X152226029Y-117784633D01*
X152226029Y-117366489D01*
X153337334Y-117366489D01*
X153337334Y-117784633D01*
G37*
G36*
X150240823Y-118187145D02*
G01*
X150214502Y-118167623D01*
X150187711Y-118146739D01*
X150160536Y-118124551D01*
X150133063Y-118101116D01*
X150105377Y-118076492D01*
X150077564Y-118050737D01*
X150049709Y-118023908D01*
X150021897Y-117996063D01*
X149994216Y-117967261D01*
X149966749Y-117937558D01*
X149939583Y-117907012D01*
X149912804Y-117875681D01*
X149886496Y-117843623D01*
X149860746Y-117810895D01*
X149835639Y-117777556D01*
X149811261Y-117743661D01*
X149787697Y-117709271D01*
X149765033Y-117674441D01*
X149743354Y-117639230D01*
X149722747Y-117603696D01*
X149703296Y-117567896D01*
X149685087Y-117531887D01*
X149668207Y-117495729D01*
X149652740Y-117459477D01*
X149638772Y-117423191D01*
X149626388Y-117386927D01*
X149615675Y-117350743D01*
X149606718Y-117314697D01*
X149599602Y-117278848D01*
X149594414Y-117243251D01*
X149591238Y-117207966D01*
X149590160Y-117173049D01*
X149591186Y-117134236D01*
X149594232Y-117095693D01*
X149599245Y-117057482D01*
X149606177Y-117019666D01*
X149614976Y-116982310D01*
X149625593Y-116945475D01*
X149637976Y-116909225D01*
X149652076Y-116873623D01*
X149667841Y-116838732D01*
X149685222Y-116804616D01*
X149704167Y-116771337D01*
X149724627Y-116738959D01*
X149746551Y-116707545D01*
X149769889Y-116677158D01*
X149794590Y-116647861D01*
X149820603Y-116619717D01*
X149847879Y-116592790D01*
X149876366Y-116567142D01*
X149906015Y-116542837D01*
X149936775Y-116519938D01*
X149968595Y-116498508D01*
X150001425Y-116478610D01*
X150035215Y-116460308D01*
X150069914Y-116443664D01*
X150105472Y-116428741D01*
X150141837Y-116415604D01*
X150178961Y-116404314D01*
X150216792Y-116394935D01*
X150255279Y-116387531D01*
X150294374Y-116382164D01*
X150334024Y-116378897D01*
X150374180Y-116377794D01*
X150413420Y-116378767D01*
X150452246Y-116381655D01*
X150490601Y-116386411D01*
X150528433Y-116392992D01*
X150565686Y-116401350D01*
X150602307Y-116411440D01*
X150638240Y-116423217D01*
X150673430Y-116436634D01*
X150707825Y-116451646D01*
X150741368Y-116468208D01*
X150774007Y-116486273D01*
X150805685Y-116505796D01*
X150836349Y-116526731D01*
X150865945Y-116549032D01*
X150894417Y-116572655D01*
X150921711Y-116597552D01*
X150947773Y-116623678D01*
X150972549Y-116650989D01*
X150995983Y-116679437D01*
X151018022Y-116708977D01*
X151038611Y-116739564D01*
X151057695Y-116771152D01*
X151075220Y-116803694D01*
X151091132Y-116837146D01*
X151105375Y-116871462D01*
X151117897Y-116906596D01*
X151128641Y-116942502D01*
X151137554Y-116979135D01*
X151144581Y-117016448D01*
X151149668Y-117054397D01*
X151152760Y-117092935D01*
X151153803Y-117132016D01*
X150721004Y-117242903D01*
X150720519Y-117221840D01*
X150719081Y-117201162D01*
X150716714Y-117180887D01*
X150713445Y-117161035D01*
X150709299Y-117141624D01*
X150704302Y-117122672D01*
X150691856Y-117086221D01*
X150676309Y-117051830D01*
X150657867Y-117019649D01*
X150636732Y-116989827D01*
X150613110Y-116962512D01*
X150587204Y-116937853D01*
X150559217Y-116915999D01*
X150529355Y-116897099D01*
X150497820Y-116881301D01*
X150464817Y-116868755D01*
X150430549Y-116859609D01*
X150395221Y-116854013D01*
X150359036Y-116852114D01*
X150333768Y-116853749D01*
X150308155Y-116858577D01*
X150282468Y-116866482D01*
X150256981Y-116877347D01*
X150231966Y-116891058D01*
X150207697Y-116907498D01*
X150184444Y-116926551D01*
X150162482Y-116948101D01*
X150142083Y-116972033D01*
X150123519Y-116998230D01*
X150107063Y-117026577D01*
X150092987Y-117056957D01*
X150081565Y-117089255D01*
X150073069Y-117123355D01*
X150067772Y-117159141D01*
X150065945Y-117196496D01*
X150067018Y-117218794D01*
X150070248Y-117242021D01*
X150075651Y-117266217D01*
X150083241Y-117291417D01*
X150093037Y-117317660D01*
X150105052Y-117344983D01*
X150119303Y-117373424D01*
X150135806Y-117403019D01*
X150154577Y-117433806D01*
X150175631Y-117465823D01*
X150198984Y-117499107D01*
X150224652Y-117533695D01*
X150252652Y-117569624D01*
X150282998Y-117606933D01*
X150315706Y-117645658D01*
X150350793Y-117685837D01*
X150388275Y-117727507D01*
X150428166Y-117770706D01*
X150470483Y-117815471D01*
X150515242Y-117861839D01*
X150562459Y-117909848D01*
X150612149Y-117959535D01*
X150664328Y-118010937D01*
X150719012Y-118064093D01*
X150776217Y-118119039D01*
X150835959Y-118175812D01*
X150898254Y-118234451D01*
X150963117Y-118294992D01*
X151030564Y-118357473D01*
X151100611Y-118421931D01*
X151173274Y-118488404D01*
X151248569Y-118556929D01*
X151248569Y-118660000D01*
X149558897Y-118660000D01*
X149558897Y-118187145D01*
X150240823Y-118187145D01*
G37*
G36*
X148521066Y-116379202D02*
G01*
X148571472Y-116383390D01*
X148620756Y-116390304D01*
X148668882Y-116399891D01*
X148715813Y-116412096D01*
X148761514Y-116426867D01*
X148805949Y-116444150D01*
X148849081Y-116463890D01*
X148890876Y-116486035D01*
X148931297Y-116510530D01*
X148970307Y-116537322D01*
X149007872Y-116566357D01*
X149043954Y-116597582D01*
X149078519Y-116630943D01*
X149111530Y-116666387D01*
X149142951Y-116703859D01*
X149172747Y-116743305D01*
X149200881Y-116784673D01*
X149227317Y-116827909D01*
X149252019Y-116872959D01*
X149274952Y-116919768D01*
X149296079Y-116968285D01*
X149315365Y-117018454D01*
X149332774Y-117070223D01*
X149348269Y-117123537D01*
X149361815Y-117178343D01*
X149373375Y-117234588D01*
X149382914Y-117292217D01*
X149390396Y-117351177D01*
X149395785Y-117411414D01*
X149399045Y-117472875D01*
X149400139Y-117535505D01*
X149399045Y-117598002D01*
X149395785Y-117659334D01*
X149390396Y-117719447D01*
X149382914Y-117778290D01*
X149373375Y-117835806D01*
X149361815Y-117891943D01*
X149348269Y-117946647D01*
X149332774Y-117999865D01*
X149315365Y-118051541D01*
X149296079Y-118101624D01*
X149274952Y-118150058D01*
X149252019Y-118196790D01*
X149227317Y-118241767D01*
X149200881Y-118284934D01*
X149172747Y-118326238D01*
X149142951Y-118365626D01*
X149111530Y-118403043D01*
X149078519Y-118438435D01*
X149043954Y-118471749D01*
X149007872Y-118502931D01*
X148970307Y-118531928D01*
X148931297Y-118558685D01*
X148890876Y-118583149D01*
X148849081Y-118605266D01*
X148805949Y-118624983D01*
X148761514Y-118642245D01*
X148715813Y-118656998D01*
X148668882Y-118669190D01*
X148620756Y-118678766D01*
X148571472Y-118685673D01*
X148521066Y-118689856D01*
X148469574Y-118691263D01*
X148418219Y-118689856D01*
X148367950Y-118685673D01*
X148318802Y-118678766D01*
X148270813Y-118669190D01*
X148224016Y-118656998D01*
X148178448Y-118642245D01*
X148134145Y-118624983D01*
X148091142Y-118605266D01*
X148049476Y-118583149D01*
X148009180Y-118558685D01*
X147970292Y-118531928D01*
X147932847Y-118502931D01*
X147896881Y-118471749D01*
X147862429Y-118438435D01*
X147829527Y-118403043D01*
X147798211Y-118365626D01*
X147768517Y-118326238D01*
X147740479Y-118284934D01*
X147714135Y-118241767D01*
X147689518Y-118196790D01*
X147666667Y-118150058D01*
X147645614Y-118101624D01*
X147626398Y-118051541D01*
X147609053Y-117999865D01*
X147593615Y-117946647D01*
X147580119Y-117891943D01*
X147568602Y-117835806D01*
X147559099Y-117778290D01*
X147551645Y-117719447D01*
X147546277Y-117659334D01*
X147543030Y-117598002D01*
X147541939Y-117535505D01*
X148017725Y-117535505D01*
X148018239Y-117572777D01*
X148019773Y-117609285D01*
X148022313Y-117645003D01*
X148025846Y-117679903D01*
X148030357Y-117713956D01*
X148035834Y-117747137D01*
X148042262Y-117779416D01*
X148049629Y-117810767D01*
X148057920Y-117841162D01*
X148067122Y-117870574D01*
X148077221Y-117898974D01*
X148088204Y-117926336D01*
X148100057Y-117952632D01*
X148112767Y-117977834D01*
X148126319Y-118001914D01*
X148140701Y-118024846D01*
X148155898Y-118046601D01*
X148171898Y-118067153D01*
X148188686Y-118086473D01*
X148206250Y-118104534D01*
X148224574Y-118121308D01*
X148243646Y-118136769D01*
X148263453Y-118150888D01*
X148283980Y-118163637D01*
X148305214Y-118174990D01*
X148327141Y-118184918D01*
X148349748Y-118193395D01*
X148373022Y-118200392D01*
X148396947Y-118205882D01*
X148421512Y-118209838D01*
X148446703Y-118212231D01*
X148472505Y-118213035D01*
X148498307Y-118212231D01*
X148523497Y-118209838D01*
X148548062Y-118205882D01*
X148571988Y-118200392D01*
X148595261Y-118193395D01*
X148617868Y-118184918D01*
X148639796Y-118174990D01*
X148661030Y-118163637D01*
X148681557Y-118150888D01*
X148701363Y-118136769D01*
X148720435Y-118121308D01*
X148738760Y-118104534D01*
X148756323Y-118086473D01*
X148773111Y-118067153D01*
X148789111Y-118046601D01*
X148804309Y-118024846D01*
X148818690Y-118001914D01*
X148832243Y-117977834D01*
X148844953Y-117952632D01*
X148856806Y-117926336D01*
X148867789Y-117898974D01*
X148877888Y-117870574D01*
X148887090Y-117841162D01*
X148895381Y-117810767D01*
X148902747Y-117779416D01*
X148909176Y-117747137D01*
X148914652Y-117713956D01*
X148919164Y-117679903D01*
X148922696Y-117645003D01*
X148925237Y-117609285D01*
X148926771Y-117572777D01*
X148927285Y-117535505D01*
X148926771Y-117498054D01*
X148925237Y-117461371D01*
X148922696Y-117425484D01*
X148919164Y-117390421D01*
X148914652Y-117356210D01*
X148909176Y-117322878D01*
X148902747Y-117290453D01*
X148895381Y-117258961D01*
X148887090Y-117228432D01*
X148877888Y-117198892D01*
X148867789Y-117170368D01*
X148856806Y-117142889D01*
X148844953Y-117116482D01*
X148832243Y-117091174D01*
X148818690Y-117066993D01*
X148804309Y-117043967D01*
X148789111Y-117022123D01*
X148773111Y-117001488D01*
X148756323Y-116982091D01*
X148738760Y-116963958D01*
X148720435Y-116947118D01*
X148701363Y-116931597D01*
X148681557Y-116917424D01*
X148661030Y-116904626D01*
X148639796Y-116893231D01*
X148617868Y-116883265D01*
X148595261Y-116874757D01*
X148571988Y-116867734D01*
X148548062Y-116862224D01*
X148523497Y-116858254D01*
X148498307Y-116855852D01*
X148472505Y-116855045D01*
X148446703Y-116855852D01*
X148421512Y-116858254D01*
X148396947Y-116862224D01*
X148373022Y-116867734D01*
X148349748Y-116874757D01*
X148327141Y-116883265D01*
X148305214Y-116893231D01*
X148283980Y-116904626D01*
X148263453Y-116917424D01*
X148243646Y-116931597D01*
X148224574Y-116947118D01*
X148206250Y-116963958D01*
X148188686Y-116982091D01*
X148171898Y-117001488D01*
X148155898Y-117022123D01*
X148140701Y-117043967D01*
X148126319Y-117066993D01*
X148112767Y-117091174D01*
X148100057Y-117116482D01*
X148088204Y-117142889D01*
X148077221Y-117170368D01*
X148067122Y-117198892D01*
X148057920Y-117228432D01*
X148049629Y-117258961D01*
X148042262Y-117290453D01*
X148035834Y-117322878D01*
X148030357Y-117356210D01*
X148025846Y-117390421D01*
X148022313Y-117425484D01*
X148019773Y-117461371D01*
X148018239Y-117498054D01*
X148017725Y-117535505D01*
X147541939Y-117535505D01*
X147543030Y-117472875D01*
X147546277Y-117411414D01*
X147551645Y-117351177D01*
X147559099Y-117292217D01*
X147568602Y-117234588D01*
X147580119Y-117178343D01*
X147593615Y-117123537D01*
X147609053Y-117070223D01*
X147626398Y-117018454D01*
X147645614Y-116968285D01*
X147666667Y-116919768D01*
X147689518Y-116872959D01*
X147714135Y-116827909D01*
X147740479Y-116784673D01*
X147768517Y-116743305D01*
X147798211Y-116703859D01*
X147829527Y-116666387D01*
X147862429Y-116630943D01*
X147896881Y-116597582D01*
X147932847Y-116566357D01*
X147970292Y-116537322D01*
X148009180Y-116510530D01*
X148049476Y-116486035D01*
X148091142Y-116463890D01*
X148134145Y-116444150D01*
X148178448Y-116426867D01*
X148224016Y-116412096D01*
X148270813Y-116399891D01*
X148318802Y-116390304D01*
X148367950Y-116383390D01*
X148418219Y-116379202D01*
X148469574Y-116377794D01*
X148521066Y-116379202D01*
G37*
G36*
X146375924Y-118187145D02*
G01*
X146349603Y-118167623D01*
X146322812Y-118146739D01*
X146295638Y-118124551D01*
X146268164Y-118101116D01*
X146240478Y-118076492D01*
X146212665Y-118050737D01*
X146184810Y-118023908D01*
X146156999Y-117996063D01*
X146129317Y-117967261D01*
X146101850Y-117937558D01*
X146074685Y-117907012D01*
X146047905Y-117875681D01*
X146021597Y-117843623D01*
X145995847Y-117810895D01*
X145970740Y-117777556D01*
X145946362Y-117743661D01*
X145922798Y-117709271D01*
X145900134Y-117674441D01*
X145878455Y-117639230D01*
X145857848Y-117603696D01*
X145838397Y-117567896D01*
X145820189Y-117531887D01*
X145803308Y-117495729D01*
X145787841Y-117459477D01*
X145773873Y-117423191D01*
X145761489Y-117386927D01*
X145750776Y-117350743D01*
X145741819Y-117314697D01*
X145734703Y-117278848D01*
X145729515Y-117243251D01*
X145726339Y-117207966D01*
X145725261Y-117173049D01*
X145726287Y-117134236D01*
X145729333Y-117095693D01*
X145734346Y-117057482D01*
X145741278Y-117019666D01*
X145750078Y-116982310D01*
X145760694Y-116945475D01*
X145773077Y-116909225D01*
X145787177Y-116873623D01*
X145802942Y-116838732D01*
X145820323Y-116804616D01*
X145839268Y-116771337D01*
X145859728Y-116738959D01*
X145881652Y-116707545D01*
X145904990Y-116677158D01*
X145929691Y-116647861D01*
X145955704Y-116619717D01*
X145982980Y-116592790D01*
X146011468Y-116567142D01*
X146041116Y-116542837D01*
X146071876Y-116519938D01*
X146103696Y-116498508D01*
X146136527Y-116478610D01*
X146170316Y-116460308D01*
X146205015Y-116443664D01*
X146240573Y-116428741D01*
X146276939Y-116415604D01*
X146314062Y-116404314D01*
X146351893Y-116394935D01*
X146390381Y-116387531D01*
X146429475Y-116382164D01*
X146469125Y-116378897D01*
X146509281Y-116377794D01*
X146548521Y-116378767D01*
X146587347Y-116381655D01*
X146625703Y-116386411D01*
X146663534Y-116392992D01*
X146700788Y-116401350D01*
X146737408Y-116411440D01*
X146773341Y-116423217D01*
X146808532Y-116436634D01*
X146842926Y-116451646D01*
X146876470Y-116468208D01*
X146909108Y-116486273D01*
X146940786Y-116505796D01*
X146971450Y-116526731D01*
X147001046Y-116549032D01*
X147029518Y-116572655D01*
X147056812Y-116597552D01*
X147082874Y-116623678D01*
X147107650Y-116650989D01*
X147131084Y-116679437D01*
X147153123Y-116708977D01*
X147173712Y-116739564D01*
X147192796Y-116771152D01*
X147210321Y-116803694D01*
X147226233Y-116837146D01*
X147240476Y-116871462D01*
X147252998Y-116906596D01*
X147263742Y-116942502D01*
X147272655Y-116979135D01*
X147279682Y-117016448D01*
X147284769Y-117054397D01*
X147287861Y-117092935D01*
X147288904Y-117132016D01*
X146856106Y-117242903D01*
X146855620Y-117221840D01*
X146854182Y-117201162D01*
X146851815Y-117180887D01*
X146848546Y-117161035D01*
X146844401Y-117141624D01*
X146839403Y-117122672D01*
X146826957Y-117086221D01*
X146811410Y-117051830D01*
X146792968Y-117019649D01*
X146771834Y-116989827D01*
X146748211Y-116962512D01*
X146722305Y-116937853D01*
X146694319Y-116915999D01*
X146664456Y-116897099D01*
X146632921Y-116881301D01*
X146599918Y-116868755D01*
X146565650Y-116859609D01*
X146530322Y-116854013D01*
X146494138Y-116852114D01*
X146468870Y-116853749D01*
X146443256Y-116858577D01*
X146417569Y-116866482D01*
X146392082Y-116877347D01*
X146367068Y-116891058D01*
X146342798Y-116907498D01*
X146319545Y-116926551D01*
X146297583Y-116948101D01*
X146277184Y-116972033D01*
X146258620Y-116998230D01*
X146242164Y-117026577D01*
X146228089Y-117056957D01*
X146216666Y-117089255D01*
X146208170Y-117123355D01*
X146202873Y-117159141D01*
X146201046Y-117196496D01*
X146202119Y-117218794D01*
X146205349Y-117242021D01*
X146210752Y-117266217D01*
X146218343Y-117291417D01*
X146228138Y-117317660D01*
X146240153Y-117344983D01*
X146254404Y-117373424D01*
X146270907Y-117403019D01*
X146289678Y-117433806D01*
X146310732Y-117465823D01*
X146334085Y-117499107D01*
X146359754Y-117533695D01*
X146387753Y-117569624D01*
X146418099Y-117606933D01*
X146450807Y-117645658D01*
X146485894Y-117685837D01*
X146523376Y-117727507D01*
X146563267Y-117770706D01*
X146605584Y-117815471D01*
X146650343Y-117861839D01*
X146697560Y-117909848D01*
X146747250Y-117959535D01*
X146799429Y-118010937D01*
X146854113Y-118064093D01*
X146911319Y-118119039D01*
X146971061Y-118175812D01*
X147033355Y-118234451D01*
X147098218Y-118294992D01*
X147165665Y-118357473D01*
X147235712Y-118421931D01*
X147308375Y-118488404D01*
X147383670Y-118556929D01*
X147383670Y-118660000D01*
X145693998Y-118660000D01*
X145693998Y-118187145D01*
X146375924Y-118187145D01*
G37*
G36*
X144341870Y-117413384D02*
G01*
X144319593Y-117400932D01*
X144297902Y-117385829D01*
X144276916Y-117368206D01*
X144256751Y-117348194D01*
X144237525Y-117325923D01*
X144219355Y-117301526D01*
X144202359Y-117275131D01*
X144186653Y-117246871D01*
X144172356Y-117216877D01*
X144159584Y-117185279D01*
X144148456Y-117152209D01*
X144139087Y-117117797D01*
X144131596Y-117082174D01*
X144126100Y-117045471D01*
X144122717Y-117007820D01*
X144121563Y-116969351D01*
X144122456Y-116935416D01*
X144125104Y-116902142D01*
X144129456Y-116869555D01*
X144135465Y-116837683D01*
X144143081Y-116806552D01*
X144152256Y-116776191D01*
X144162939Y-116746627D01*
X144175082Y-116717887D01*
X144188637Y-116689999D01*
X144203553Y-116662989D01*
X144219783Y-116636886D01*
X144237277Y-116611716D01*
X144255985Y-116587507D01*
X144275860Y-116564287D01*
X144296851Y-116542082D01*
X144318911Y-116520921D01*
X144341989Y-116500830D01*
X144366038Y-116481836D01*
X144391007Y-116463968D01*
X144416848Y-116447253D01*
X144443513Y-116431717D01*
X144470951Y-116417389D01*
X144499113Y-116404296D01*
X144527952Y-116392464D01*
X144557418Y-116381922D01*
X144587461Y-116372697D01*
X144618033Y-116364816D01*
X144649085Y-116358306D01*
X144680568Y-116353196D01*
X144712432Y-116349512D01*
X144744630Y-116347281D01*
X144777110Y-116346531D01*
X144808338Y-116347225D01*
X144839085Y-116349284D01*
X144869330Y-116352672D01*
X144899053Y-116357354D01*
X144928235Y-116363296D01*
X144956854Y-116370462D01*
X144984890Y-116378818D01*
X145012324Y-116388327D01*
X145039134Y-116398956D01*
X145065301Y-116410669D01*
X145090804Y-116423431D01*
X145115622Y-116437206D01*
X145139737Y-116451961D01*
X145163126Y-116467659D01*
X145185771Y-116484267D01*
X145207650Y-116501748D01*
X145228743Y-116520067D01*
X145249030Y-116539190D01*
X145268491Y-116559082D01*
X145287106Y-116579707D01*
X145304853Y-116601030D01*
X145321714Y-116623017D01*
X145337667Y-116645632D01*
X145352692Y-116668840D01*
X145366769Y-116692607D01*
X145379877Y-116716896D01*
X145391997Y-116741673D01*
X145403108Y-116766904D01*
X145413189Y-116792552D01*
X145422221Y-116818583D01*
X145430183Y-116844962D01*
X145437055Y-116871653D01*
X144951988Y-116976189D01*
X144947293Y-116956325D01*
X144938489Y-116928970D01*
X144927656Y-116904535D01*
X144914890Y-116883010D01*
X144900290Y-116864388D01*
X144883951Y-116848656D01*
X144865969Y-116835807D01*
X144846442Y-116825830D01*
X144825466Y-116818715D01*
X144803137Y-116814453D01*
X144779553Y-116813035D01*
X144751354Y-116815050D01*
X144724645Y-116820963D01*
X144699708Y-116830575D01*
X144676822Y-116843689D01*
X144656267Y-116860107D01*
X144638324Y-116879631D01*
X144623272Y-116902062D01*
X144611392Y-116927203D01*
X144602963Y-116954856D01*
X144599400Y-116974588D01*
X144597579Y-116995291D01*
X144597348Y-117005987D01*
X144599215Y-117035668D01*
X144604727Y-117064191D01*
X144613750Y-117091452D01*
X144626153Y-117117346D01*
X144641802Y-117141770D01*
X144660563Y-117164617D01*
X144682303Y-117185784D01*
X144706891Y-117205167D01*
X144734191Y-117222661D01*
X144764072Y-117238161D01*
X144796400Y-117251563D01*
X144831042Y-117262762D01*
X144867866Y-117271655D01*
X144906737Y-117278136D01*
X144926899Y-117280440D01*
X144947523Y-117282102D01*
X144968592Y-117283108D01*
X144990090Y-117283447D01*
X145065317Y-117565792D01*
X145034603Y-117566241D01*
X145004398Y-117567580D01*
X144974732Y-117569793D01*
X144945636Y-117572865D01*
X144917140Y-117576781D01*
X144889275Y-117581524D01*
X144862072Y-117587082D01*
X144835561Y-117593437D01*
X144809772Y-117600575D01*
X144784737Y-117608480D01*
X144760486Y-117617138D01*
X144737049Y-117626534D01*
X144714457Y-117636651D01*
X144692741Y-117647475D01*
X144671931Y-117658990D01*
X144652058Y-117671182D01*
X144633153Y-117684035D01*
X144615245Y-117697535D01*
X144598366Y-117711664D01*
X144582546Y-117726410D01*
X144567816Y-117741756D01*
X144554207Y-117757687D01*
X144541748Y-117774187D01*
X144530471Y-117791243D01*
X144520406Y-117808838D01*
X144511584Y-117826958D01*
X144504035Y-117845586D01*
X144497790Y-117864709D01*
X144492880Y-117884310D01*
X144489334Y-117904374D01*
X144487185Y-117924887D01*
X144486461Y-117945833D01*
X144487755Y-117974301D01*
X144491592Y-118001913D01*
X144497902Y-118028533D01*
X144506619Y-118054025D01*
X144517675Y-118078256D01*
X144531000Y-118101089D01*
X144546529Y-118122389D01*
X144564192Y-118142021D01*
X144583921Y-118159851D01*
X144605649Y-118175741D01*
X144629308Y-118189558D01*
X144654829Y-118201166D01*
X144682144Y-118210430D01*
X144711187Y-118217215D01*
X144741888Y-118221385D01*
X144774180Y-118222805D01*
X144801140Y-118221849D01*
X144827378Y-118219009D01*
X144852813Y-118214320D01*
X144877365Y-118207822D01*
X144900951Y-118199552D01*
X144923493Y-118189549D01*
X144944908Y-118177849D01*
X144965116Y-118164492D01*
X144984037Y-118149514D01*
X145001588Y-118132955D01*
X145017689Y-118114851D01*
X145032260Y-118095241D01*
X145045220Y-118074163D01*
X145056487Y-118051654D01*
X145065981Y-118027753D01*
X145073621Y-118002498D01*
X145538660Y-118120223D01*
X145530470Y-118149797D01*
X145520857Y-118178961D01*
X145509860Y-118207681D01*
X145497518Y-118235921D01*
X145483870Y-118263648D01*
X145468955Y-118290827D01*
X145452813Y-118317422D01*
X145435482Y-118343400D01*
X145417002Y-118368725D01*
X145397413Y-118393362D01*
X145376752Y-118417278D01*
X145355060Y-118440437D01*
X145332375Y-118462804D01*
X145308737Y-118484345D01*
X145284185Y-118505026D01*
X145258757Y-118524811D01*
X145232494Y-118543666D01*
X145205435Y-118561556D01*
X145177618Y-118578446D01*
X145149083Y-118594302D01*
X145119869Y-118609089D01*
X145090014Y-118622772D01*
X145059560Y-118635317D01*
X145028543Y-118646688D01*
X144997004Y-118656852D01*
X144964983Y-118665773D01*
X144932517Y-118673417D01*
X144899646Y-118679749D01*
X144866410Y-118684734D01*
X144832847Y-118688338D01*
X144798997Y-118690526D01*
X144764898Y-118691263D01*
X144725466Y-118690331D01*
X144686607Y-118687568D01*
X144648367Y-118683018D01*
X144610790Y-118676727D01*
X144573920Y-118668741D01*
X144537801Y-118659104D01*
X144502480Y-118647864D01*
X144467998Y-118635064D01*
X144434402Y-118620751D01*
X144401736Y-118604970D01*
X144370043Y-118587766D01*
X144339369Y-118569186D01*
X144309758Y-118549275D01*
X144281254Y-118528077D01*
X144253903Y-118505640D01*
X144227747Y-118482008D01*
X144202833Y-118457226D01*
X144179203Y-118431341D01*
X144156903Y-118404398D01*
X144135978Y-118376442D01*
X144116471Y-118347519D01*
X144098427Y-118317675D01*
X144081890Y-118286954D01*
X144066906Y-118255404D01*
X144053518Y-118223068D01*
X144041770Y-118189992D01*
X144031708Y-118156223D01*
X144023376Y-118121806D01*
X144016818Y-118086785D01*
X144012079Y-118051207D01*
X144009203Y-118015118D01*
X144008234Y-117978562D01*
X144008734Y-117951969D01*
X144010210Y-117925868D01*
X144012629Y-117900268D01*
X144015958Y-117875177D01*
X144020163Y-117850603D01*
X144025210Y-117826554D01*
X144031065Y-117803040D01*
X144037696Y-117780069D01*
X144045068Y-117757648D01*
X144053147Y-117735787D01*
X144061900Y-117714494D01*
X144071294Y-117693777D01*
X144081295Y-117673644D01*
X144091869Y-117654105D01*
X144102982Y-117635167D01*
X144114602Y-117616838D01*
X144126693Y-117599128D01*
X144139224Y-117582045D01*
X144152159Y-117565597D01*
X144165465Y-117549792D01*
X144179110Y-117534639D01*
X144193058Y-117520146D01*
X144207277Y-117506322D01*
X144221733Y-117493175D01*
X144251220Y-117468946D01*
X144281252Y-117447526D01*
X144311558Y-117428983D01*
X144341870Y-117413384D01*
G37*
%TO.C,G\u002A\u002A\u002A*%
G36*
X181889116Y-66746065D02*
G01*
X182049844Y-66868299D01*
X182254941Y-67061092D01*
X182318442Y-67124841D01*
X182488423Y-67309791D01*
X182591397Y-67456090D01*
X182633147Y-67578048D01*
X182619459Y-67689977D01*
X182556118Y-67806189D01*
X182554250Y-67808828D01*
X182458988Y-67887297D01*
X182310668Y-67910536D01*
X182231956Y-67904458D01*
X182152239Y-67876961D01*
X182060894Y-67816215D01*
X181940442Y-67710420D01*
X181773405Y-67547774D01*
X181711767Y-67485663D01*
X181540321Y-67296504D01*
X181438999Y-67146092D01*
X181403282Y-67021542D01*
X181428651Y-66909971D01*
X181510587Y-66798497D01*
X181550385Y-66759408D01*
X181651663Y-66695950D01*
X181760481Y-66690059D01*
X181889116Y-66746065D01*
G37*
G36*
X179118641Y-63970331D02*
G01*
X179281689Y-64089721D01*
X179488941Y-64280046D01*
X179500969Y-64291759D01*
X179661869Y-64451811D01*
X179766154Y-64567002D01*
X179825807Y-64654722D01*
X179852811Y-64732361D01*
X179859150Y-64817310D01*
X179858973Y-64834698D01*
X179833319Y-64976272D01*
X179754803Y-65067393D01*
X179727634Y-65085606D01*
X179610525Y-65139278D01*
X179494078Y-65140513D01*
X179363974Y-65083694D01*
X179205892Y-64963201D01*
X179005512Y-64773416D01*
X178935590Y-64702453D01*
X178767742Y-64515785D01*
X178668951Y-64368091D01*
X178634578Y-64246330D01*
X178659984Y-64137460D01*
X178740531Y-64028442D01*
X178772390Y-63996644D01*
X178876225Y-63927906D01*
X178987564Y-63917764D01*
X179118641Y-63970331D01*
G37*
G36*
X182313600Y-63920380D02*
G01*
X182476574Y-63970792D01*
X182587957Y-64089168D01*
X182629205Y-64256965D01*
X182626136Y-64300779D01*
X182600280Y-64381116D01*
X182538586Y-64475988D01*
X182429668Y-64601415D01*
X182262141Y-64773416D01*
X182160777Y-64873531D01*
X182016386Y-65007400D01*
X181909753Y-65088924D01*
X181824861Y-65129489D01*
X181745690Y-65140481D01*
X181724108Y-65139879D01*
X181561134Y-65089467D01*
X181449751Y-64971091D01*
X181408503Y-64803294D01*
X181411572Y-64759480D01*
X181437428Y-64679143D01*
X181499122Y-64584270D01*
X181608039Y-64458844D01*
X181775567Y-64286843D01*
X181876931Y-64186728D01*
X182021322Y-64052859D01*
X182127955Y-63971335D01*
X182212847Y-63930770D01*
X182292018Y-63919778D01*
X182313600Y-63920380D01*
G37*
G36*
X179566979Y-66690919D02*
G01*
X179715828Y-66745249D01*
X179819952Y-66865950D01*
X179859150Y-67031323D01*
X179855604Y-67081523D01*
X179829821Y-67161091D01*
X179769007Y-67253421D01*
X179661412Y-67375018D01*
X179495286Y-67542384D01*
X179373976Y-67658974D01*
X179231927Y-67788602D01*
X179121949Y-67881024D01*
X179060998Y-67921439D01*
X179033246Y-67927030D01*
X178903405Y-67911221D01*
X178771079Y-67851611D01*
X178684406Y-67767834D01*
X178667984Y-67734868D01*
X178639738Y-67636076D01*
X178653993Y-67535798D01*
X178718049Y-67419243D01*
X178839201Y-67271624D01*
X179024749Y-67078153D01*
X179070432Y-67032484D01*
X179242479Y-66867765D01*
X179369535Y-66762332D01*
X179464732Y-66706313D01*
X179541200Y-66689834D01*
X179566979Y-66690919D01*
G37*
G36*
X182753954Y-65563864D02*
G01*
X182934001Y-65570342D01*
X183055418Y-65586235D01*
X183140052Y-65615061D01*
X183209750Y-65660339D01*
X183301622Y-65764204D01*
X183333456Y-65915157D01*
X183308640Y-66051654D01*
X183209750Y-66169975D01*
X183163943Y-66202122D01*
X183087546Y-66235769D01*
X182982011Y-66255561D01*
X182825771Y-66264923D01*
X182597264Y-66267283D01*
X182556520Y-66267259D01*
X182347394Y-66265083D01*
X182207658Y-66256509D01*
X182116157Y-66237502D01*
X182051738Y-66204025D01*
X181993245Y-66152042D01*
X181947664Y-66099099D01*
X181881399Y-65944659D01*
X181899533Y-65791526D01*
X182001710Y-65660339D01*
X182043724Y-65630525D01*
X182119951Y-65595717D01*
X182224464Y-65575212D01*
X182379108Y-65565490D01*
X182605730Y-65563031D01*
X182753954Y-65563864D01*
G37*
G36*
X180930149Y-63358206D02*
G01*
X180947808Y-63375370D01*
X180986514Y-63425995D01*
X181011349Y-63494869D01*
X181025341Y-63600901D01*
X181031516Y-63763000D01*
X181032902Y-64000073D01*
X181032220Y-64144540D01*
X181026504Y-64349493D01*
X181013189Y-64487455D01*
X180990135Y-64575842D01*
X180955200Y-64632070D01*
X180887042Y-64680320D01*
X180742389Y-64715060D01*
X180586395Y-64701930D01*
X180461460Y-64640228D01*
X180424608Y-64595464D01*
X180399524Y-64527422D01*
X180384614Y-64419020D01*
X180377449Y-64252426D01*
X180375601Y-64009809D01*
X180376061Y-63813220D01*
X180379842Y-63639562D01*
X180390503Y-63526065D01*
X180411598Y-63454055D01*
X180446681Y-63404853D01*
X180499308Y-63359785D01*
X180631110Y-63283958D01*
X180785419Y-63274408D01*
X180930149Y-63358206D01*
G37*
G36*
X178758082Y-65563056D02*
G01*
X178967209Y-65565232D01*
X179106945Y-65573805D01*
X179198445Y-65592812D01*
X179262865Y-65626290D01*
X179321358Y-65678273D01*
X179325324Y-65682310D01*
X179404048Y-65798092D01*
X179436599Y-65915157D01*
X179436531Y-65919411D01*
X179401424Y-66037616D01*
X179321358Y-66152042D01*
X179311655Y-66161643D01*
X179253632Y-66210436D01*
X179186344Y-66241361D01*
X179088635Y-66258453D01*
X178939352Y-66265748D01*
X178717338Y-66267283D01*
X178554614Y-66266300D01*
X178377096Y-66259606D01*
X178257339Y-66243605D01*
X178173779Y-66214870D01*
X178104853Y-66169975D01*
X178012981Y-66066110D01*
X177981146Y-65915157D01*
X178005963Y-65778660D01*
X178104853Y-65660339D01*
X178150660Y-65628192D01*
X178227056Y-65594546D01*
X178332592Y-65574754D01*
X178488831Y-65565391D01*
X178717338Y-65563031D01*
X178758082Y-65563056D01*
G37*
G36*
X182840213Y-71481373D02*
G01*
X183130847Y-71486740D01*
X183186470Y-71487897D01*
X183496552Y-71496789D01*
X183732404Y-71511512D01*
X183911063Y-71536813D01*
X184049566Y-71577434D01*
X184164951Y-71638123D01*
X184274255Y-71723623D01*
X184394514Y-71838680D01*
X184480826Y-71932070D01*
X184631019Y-72159986D01*
X184714518Y-72419236D01*
X184740928Y-72734658D01*
X184741959Y-73075046D01*
X184295933Y-73075046D01*
X183849908Y-73075046D01*
X183849908Y-72940528D01*
X183831901Y-72820717D01*
X183736749Y-72656884D01*
X183570709Y-72529570D01*
X183346098Y-72447087D01*
X183075231Y-72417745D01*
X183053161Y-72417904D01*
X182762194Y-72455615D01*
X182532024Y-72557038D01*
X182368281Y-72718519D01*
X182276595Y-72936401D01*
X182246143Y-73075046D01*
X181797071Y-73075046D01*
X181347999Y-73075046D01*
X181374166Y-72729057D01*
X181376961Y-72695549D01*
X181448100Y-72329609D01*
X181589691Y-72025218D01*
X181802767Y-71780732D01*
X182088363Y-71594510D01*
X182178509Y-71551773D01*
X182264048Y-71518658D01*
X182355370Y-71496881D01*
X182470093Y-71484623D01*
X182625834Y-71480061D01*
X182840213Y-71481373D01*
G37*
G36*
X190666509Y-79554190D02*
G01*
X191067959Y-79554580D01*
X191390485Y-79555809D01*
X191643094Y-79558364D01*
X191834791Y-79562727D01*
X191974584Y-79569384D01*
X192071479Y-79578817D01*
X192134482Y-79591511D01*
X192172599Y-79607950D01*
X192194837Y-79628617D01*
X192210202Y-79653998D01*
X192238607Y-79737173D01*
X192212861Y-79865274D01*
X192191756Y-79906145D01*
X192161942Y-79935695D01*
X192109322Y-79955573D01*
X192019677Y-79967696D01*
X191878788Y-79973982D01*
X191672437Y-79976347D01*
X191386404Y-79976710D01*
X190610721Y-79976710D01*
X190610721Y-82208352D01*
X190610721Y-84439995D01*
X190505083Y-84482456D01*
X190399285Y-84519858D01*
X190321586Y-84520607D01*
X190214701Y-84485081D01*
X190094270Y-84439293D01*
X190094270Y-82208001D01*
X190094270Y-79976710D01*
X189297013Y-79976710D01*
X188499756Y-79976710D01*
X188471394Y-79863708D01*
X188464974Y-79775983D01*
X188495626Y-79652432D01*
X188504603Y-79636663D01*
X188523427Y-79614555D01*
X188555123Y-79596797D01*
X188608696Y-79582912D01*
X188693149Y-79572425D01*
X188817483Y-79564858D01*
X188990703Y-79559736D01*
X189221812Y-79556581D01*
X189519811Y-79554918D01*
X189893705Y-79554269D01*
X190352495Y-79554159D01*
X190666509Y-79554190D01*
G37*
G36*
X178471716Y-71481470D02*
G01*
X178706371Y-71485673D01*
X178878304Y-71495388D01*
X179005924Y-71512488D01*
X179107636Y-71538844D01*
X179201848Y-71576331D01*
X179279885Y-71614119D01*
X179555644Y-71803060D01*
X179756750Y-72046745D01*
X179885298Y-72348383D01*
X179943385Y-72711183D01*
X179965115Y-73075046D01*
X179513056Y-73075046D01*
X179504175Y-73075045D01*
X179298373Y-73073617D01*
X179168502Y-73066972D01*
X179097213Y-73051418D01*
X179067161Y-73023264D01*
X179060998Y-72978815D01*
X179027983Y-72828725D01*
X178931234Y-72662421D01*
X178793435Y-72530355D01*
X178739939Y-72499340D01*
X178633017Y-72464270D01*
X178482263Y-72446287D01*
X178262847Y-72441220D01*
X178121437Y-72442948D01*
X177946239Y-72455272D01*
X177824789Y-72483017D01*
X177732258Y-72530355D01*
X177604331Y-72650020D01*
X177503431Y-72814993D01*
X177464695Y-72978815D01*
X177464691Y-72980705D01*
X177457979Y-73024515D01*
X177426765Y-73052162D01*
X177353701Y-73067337D01*
X177221440Y-73073734D01*
X177012637Y-73075046D01*
X176560578Y-73075046D01*
X176582308Y-72711183D01*
X176589997Y-72617777D01*
X176664911Y-72270044D01*
X176810793Y-71982698D01*
X177029738Y-71752530D01*
X177323845Y-71576331D01*
X177389124Y-71549106D01*
X177486568Y-71519525D01*
X177604256Y-71499776D01*
X177760593Y-71487988D01*
X177973988Y-71482289D01*
X178262847Y-71480805D01*
X178471716Y-71481470D01*
G37*
G36*
X177098787Y-79507209D02*
G01*
X177482561Y-79507716D01*
X177793699Y-79509674D01*
X178032040Y-79513671D01*
X178208266Y-79520299D01*
X178333057Y-79530147D01*
X178417095Y-79543805D01*
X178471061Y-79561863D01*
X178505638Y-79584911D01*
X178515059Y-79594207D01*
X178533055Y-79620174D01*
X178547990Y-79660639D01*
X178560148Y-79723544D01*
X178569812Y-79816828D01*
X178577268Y-79948432D01*
X178582798Y-80126295D01*
X178586687Y-80358358D01*
X178589217Y-80652560D01*
X178590673Y-81016842D01*
X178591338Y-81459144D01*
X178591497Y-81987406D01*
X178591293Y-82494457D01*
X178590474Y-82943473D01*
X178588785Y-83313985D01*
X178585969Y-83613882D01*
X178581769Y-83851055D01*
X178575930Y-84033394D01*
X178568194Y-84168790D01*
X178558306Y-84265134D01*
X178546010Y-84330316D01*
X178531048Y-84372226D01*
X178513165Y-84398756D01*
X178494741Y-84416620D01*
X178459509Y-84437765D01*
X178404662Y-84453788D01*
X178319588Y-84465234D01*
X178193678Y-84472648D01*
X178016319Y-84476575D01*
X177776903Y-84477559D01*
X177464816Y-84476145D01*
X177069450Y-84472878D01*
X175704066Y-84460444D01*
X175690087Y-84139305D01*
X175688164Y-84001347D01*
X175701091Y-83840440D01*
X175731049Y-83751966D01*
X175759735Y-83731885D01*
X175828307Y-83713175D01*
X175944679Y-83699999D01*
X176120368Y-83691565D01*
X176366891Y-83687085D01*
X176695767Y-83685767D01*
X177605545Y-83685767D01*
X177605545Y-82982624D01*
X177605545Y-82279482D01*
X176795656Y-82266636D01*
X175985767Y-82253789D01*
X175971256Y-81998073D01*
X175962617Y-81854325D01*
X175960669Y-81725898D01*
X175979278Y-81636131D01*
X176030661Y-81578134D01*
X176127036Y-81545019D01*
X176280621Y-81529895D01*
X176503632Y-81525873D01*
X176808288Y-81526063D01*
X177605545Y-81526063D01*
X177605545Y-80915712D01*
X177605545Y-80305361D01*
X176691670Y-80305361D01*
X176598137Y-80305379D01*
X176287788Y-80304601D01*
X176056679Y-80299004D01*
X175893141Y-80283981D01*
X175785505Y-80254928D01*
X175722101Y-80207237D01*
X175691261Y-80136304D01*
X175681314Y-80037522D01*
X175680591Y-79906285D01*
X175680586Y-79900025D01*
X175679829Y-79788077D01*
X175684563Y-79699648D01*
X175704612Y-79631973D01*
X175749796Y-79582289D01*
X175829937Y-79547831D01*
X175954859Y-79525837D01*
X176134383Y-79513541D01*
X176378330Y-79508181D01*
X176696524Y-79506991D01*
X177098787Y-79507209D01*
G37*
G36*
X187652865Y-82064198D02*
G01*
X187652815Y-82393678D01*
X187652396Y-82880555D01*
X187651335Y-83285591D01*
X187649377Y-83616364D01*
X187646265Y-83880454D01*
X187641744Y-84085438D01*
X187635558Y-84238894D01*
X187627451Y-84348402D01*
X187617168Y-84421538D01*
X187604453Y-84465882D01*
X187589049Y-84489011D01*
X187570702Y-84498505D01*
X187512835Y-84512528D01*
X187404770Y-84523249D01*
X187289002Y-84501277D01*
X187183364Y-84472967D01*
X187183364Y-83322565D01*
X187183364Y-82172164D01*
X186749076Y-82192548D01*
X186657032Y-82197540D01*
X186429363Y-82219756D01*
X186237750Y-82261060D01*
X186073938Y-82330189D01*
X185929669Y-82435879D01*
X185796688Y-82586867D01*
X185666738Y-82791890D01*
X185531564Y-83059684D01*
X185382909Y-83398987D01*
X185212518Y-83818534D01*
X185108511Y-84073595D01*
X185025852Y-84258585D01*
X184959840Y-84380582D01*
X184903417Y-84452599D01*
X184849522Y-84487649D01*
X184819613Y-84497056D01*
X184686445Y-84508433D01*
X184559120Y-84484390D01*
X184480308Y-84431426D01*
X184479210Y-84413786D01*
X184502241Y-84319995D01*
X184555208Y-84161507D01*
X184632536Y-83952692D01*
X184728650Y-83707916D01*
X184837976Y-83441546D01*
X184954938Y-83167950D01*
X185073962Y-82901495D01*
X185177917Y-82686440D01*
X185327899Y-82426035D01*
X185470044Y-82245394D01*
X185609727Y-82136847D01*
X185691248Y-82085607D01*
X185727735Y-82046318D01*
X185715264Y-82032014D01*
X185639109Y-81987748D01*
X185516730Y-81932337D01*
X185301103Y-81805278D01*
X185095291Y-81611565D01*
X184931738Y-81382692D01*
X184835023Y-81146974D01*
X184801340Y-80936124D01*
X184805096Y-80861167D01*
X185318670Y-80861167D01*
X185353068Y-81112308D01*
X185460228Y-81344882D01*
X185636689Y-81542308D01*
X185878991Y-81688009D01*
X185940857Y-81709230D01*
X186097917Y-81738855D01*
X186318871Y-81755565D01*
X186618455Y-81760813D01*
X187183364Y-81760813D01*
X187183364Y-80868762D01*
X187183364Y-79976710D01*
X186716174Y-79976710D01*
X186368869Y-79985170D01*
X186095638Y-80013346D01*
X185883559Y-80065093D01*
X185716876Y-80144265D01*
X185579835Y-80254716D01*
X185482002Y-80369500D01*
X185360495Y-80608038D01*
X185318670Y-80861167D01*
X184805096Y-80861167D01*
X184817908Y-80605461D01*
X184917304Y-80301612D01*
X185092875Y-80036675D01*
X185337971Y-79822749D01*
X185645939Y-79671933D01*
X185651047Y-79670225D01*
X185794801Y-79637453D01*
X186000797Y-79609081D01*
X186249592Y-79585870D01*
X186521739Y-79568580D01*
X186797796Y-79557968D01*
X187058316Y-79554795D01*
X187283856Y-79559819D01*
X187454972Y-79573801D01*
X187552217Y-79597498D01*
X187652865Y-79651363D01*
X187652865Y-79976710D01*
X187652865Y-82064198D01*
G37*
G36*
X180395654Y-79506908D02*
G01*
X180552339Y-79526585D01*
X180636287Y-79556201D01*
X180646422Y-79568019D01*
X180662757Y-79609714D01*
X180675840Y-79684212D01*
X180686015Y-79800240D01*
X180693624Y-79966525D01*
X180699012Y-80191796D01*
X180702522Y-80484780D01*
X180704498Y-80854205D01*
X180705282Y-81308799D01*
X180705746Y-81700777D01*
X180707642Y-82105905D01*
X180712300Y-82434940D01*
X180721105Y-82697704D01*
X180735443Y-82904023D01*
X180756699Y-83063720D01*
X180786259Y-83186619D01*
X180825508Y-83282545D01*
X180875832Y-83361320D01*
X180938615Y-83432770D01*
X181015244Y-83506717D01*
X181103486Y-83580985D01*
X181265422Y-83671389D01*
X181460956Y-83718912D01*
X181718605Y-83732717D01*
X181753980Y-83732345D01*
X182068461Y-83689071D01*
X182322699Y-83573803D01*
X182516856Y-83386436D01*
X182651093Y-83126864D01*
X182654718Y-83116216D01*
X182673844Y-83042398D01*
X182689189Y-82943237D01*
X182701133Y-82808942D01*
X182710054Y-82629719D01*
X182716333Y-82395774D01*
X182720348Y-82097316D01*
X182722479Y-81724550D01*
X182723105Y-81267683D01*
X182723193Y-81066855D01*
X182724216Y-80655323D01*
X182726669Y-80325103D01*
X182730902Y-80067353D01*
X182737267Y-79873232D01*
X182746116Y-79733898D01*
X182757798Y-79640509D01*
X182772666Y-79584224D01*
X182791070Y-79556201D01*
X182811155Y-79544627D01*
X182920984Y-79518571D01*
X183084525Y-79503709D01*
X183272390Y-79500041D01*
X183455191Y-79507567D01*
X183603538Y-79526287D01*
X183688043Y-79556201D01*
X183693551Y-79561663D01*
X183711193Y-79596972D01*
X183725282Y-79663261D01*
X183736184Y-79769519D01*
X183744267Y-79924732D01*
X183749897Y-80137888D01*
X183753440Y-80417977D01*
X183755264Y-80773984D01*
X183755735Y-81214899D01*
X183755117Y-81474398D01*
X183752126Y-81856151D01*
X183746943Y-82210736D01*
X183739889Y-82524807D01*
X183731285Y-82785018D01*
X183721450Y-82978023D01*
X183710706Y-83090476D01*
X183702807Y-83136002D01*
X183588710Y-83535550D01*
X183404652Y-83872497D01*
X183151010Y-84146420D01*
X182828164Y-84356901D01*
X182436492Y-84503520D01*
X182416877Y-84508514D01*
X182234600Y-84540888D01*
X182008933Y-84564322D01*
X181784103Y-84574035D01*
X181302223Y-84543838D01*
X180873803Y-84445662D01*
X180509148Y-84280648D01*
X180209814Y-84049998D01*
X179977354Y-83754915D01*
X179813323Y-83396603D01*
X179719276Y-82976263D01*
X179714519Y-82931286D01*
X179703622Y-82762920D01*
X179693810Y-82521540D01*
X179685452Y-82221901D01*
X179678917Y-81878761D01*
X179674577Y-81506875D01*
X179672799Y-81120998D01*
X179672796Y-81117551D01*
X179672985Y-80691344D01*
X179674708Y-80349691D01*
X179678359Y-80083321D01*
X179684330Y-79882962D01*
X179693018Y-79739342D01*
X179704814Y-79643189D01*
X179720115Y-79585233D01*
X179739314Y-79556201D01*
X179822885Y-79526661D01*
X179979380Y-79506950D01*
X180187800Y-79499796D01*
X180395654Y-79506908D01*
G37*
G36*
X174184751Y-79508649D02*
G01*
X174355344Y-79515906D01*
X174470555Y-79532222D01*
X174551254Y-79560803D01*
X174618311Y-79604854D01*
X174742446Y-79702498D01*
X174730280Y-82079361D01*
X174718115Y-84456223D01*
X174600739Y-84488866D01*
X174570607Y-84496216D01*
X174384656Y-84517473D01*
X174167058Y-84515306D01*
X173966913Y-84489655D01*
X173826063Y-84459552D01*
X173802588Y-82394194D01*
X173779113Y-80328836D01*
X173079046Y-82383126D01*
X172378979Y-84437417D01*
X172186994Y-84489312D01*
X172045308Y-84513394D01*
X171858738Y-84519606D01*
X171673900Y-84505770D01*
X171521231Y-84474362D01*
X171431172Y-84427856D01*
X171414710Y-84395889D01*
X171367718Y-84281758D01*
X171295739Y-84094917D01*
X171202195Y-83844639D01*
X171090510Y-83540198D01*
X170964105Y-83190869D01*
X170826403Y-82805925D01*
X170680827Y-82394640D01*
X170575479Y-82095922D01*
X170436092Y-81702152D01*
X170307687Y-81341076D01*
X170193612Y-81022015D01*
X170097212Y-80754288D01*
X170021834Y-80547214D01*
X169970824Y-80410115D01*
X169947528Y-80352311D01*
X169941393Y-80367000D01*
X169933662Y-80462197D01*
X169926575Y-80635461D01*
X169920313Y-80877760D01*
X169915058Y-81180061D01*
X169910993Y-81533332D01*
X169908299Y-81928541D01*
X169907158Y-82356656D01*
X169907151Y-82366060D01*
X169905728Y-82887790D01*
X169902359Y-83342879D01*
X169897146Y-83726785D01*
X169890191Y-84034967D01*
X169881597Y-84262884D01*
X169871466Y-84405993D01*
X169859898Y-84459752D01*
X169822122Y-84476668D01*
X169684339Y-84504921D01*
X169505032Y-84516963D01*
X169319993Y-84511399D01*
X169165014Y-84486834D01*
X168964224Y-84432675D01*
X168977214Y-82059669D01*
X168990203Y-79686664D01*
X169105517Y-79593313D01*
X169127722Y-79576226D01*
X169187355Y-79542549D01*
X169265872Y-79521718D01*
X169381999Y-79511634D01*
X169554464Y-79510202D01*
X169801996Y-79515323D01*
X169820413Y-79515810D01*
X170057347Y-79522863D01*
X170220375Y-79531949D01*
X170328240Y-79547214D01*
X170399689Y-79572802D01*
X170453463Y-79612861D01*
X170508310Y-79671534D01*
X170554174Y-79742407D01*
X170634777Y-79906753D01*
X170743679Y-80158327D01*
X170881092Y-80497636D01*
X171047227Y-80925191D01*
X171242295Y-81441500D01*
X171252819Y-81469655D01*
X171390139Y-81836141D01*
X171516682Y-82172270D01*
X171628787Y-82468434D01*
X171722792Y-82715024D01*
X171795035Y-82902434D01*
X171841855Y-83021055D01*
X171859590Y-83061278D01*
X171876077Y-83018448D01*
X171920704Y-82896870D01*
X171989847Y-82706500D01*
X172079917Y-82457264D01*
X172187328Y-82159091D01*
X172308492Y-81821906D01*
X172439821Y-81455638D01*
X172563853Y-81111386D01*
X172691277Y-80762056D01*
X172807698Y-80447296D01*
X172909053Y-80177897D01*
X172991279Y-79964650D01*
X173050313Y-79818346D01*
X173082093Y-79749775D01*
X173141107Y-79677321D01*
X173260451Y-79597393D01*
X173431391Y-79544844D01*
X173667550Y-79516006D01*
X173982548Y-79507209D01*
X174184751Y-79508649D01*
G37*
G36*
X185709241Y-76540447D02*
G01*
X185166754Y-76774210D01*
X184554159Y-76946314D01*
X184528905Y-76954169D01*
X184417379Y-77040956D01*
X184295933Y-77217038D01*
X184275575Y-77251071D01*
X184071889Y-77492069D01*
X183804667Y-77666092D01*
X183479636Y-77769264D01*
X183418821Y-77778187D01*
X183243481Y-77793547D01*
X183009548Y-77805858D01*
X182740164Y-77814038D01*
X182458472Y-77817006D01*
X181690203Y-77817006D01*
X181690203Y-76385028D01*
X181690203Y-76381585D01*
X182253604Y-76381585D01*
X182254244Y-76603266D01*
X182257686Y-76821276D01*
X182265258Y-76968257D01*
X182278234Y-77057182D01*
X182297890Y-77101023D01*
X182325503Y-77112754D01*
X182343472Y-77111942D01*
X182383197Y-77097355D01*
X182410498Y-77054342D01*
X182427157Y-76969822D01*
X182434949Y-76830712D01*
X182435656Y-76623932D01*
X182431832Y-76385028D01*
X182863956Y-76385028D01*
X182864476Y-76583324D01*
X182865068Y-76623932D01*
X182867756Y-76808220D01*
X182875141Y-76960749D01*
X182887878Y-77053772D01*
X182907209Y-77100152D01*
X182934381Y-77112754D01*
X182953571Y-77107377D01*
X182975335Y-77073485D01*
X182990096Y-76997168D01*
X182999098Y-76865561D01*
X183003586Y-76665802D01*
X183004806Y-76385028D01*
X183004285Y-76186732D01*
X183001006Y-75961835D01*
X182993620Y-75809307D01*
X182980884Y-75716284D01*
X182961552Y-75669903D01*
X182934381Y-75657301D01*
X182915191Y-75662678D01*
X182893427Y-75696570D01*
X182878666Y-75772888D01*
X182869664Y-75904495D01*
X182865175Y-76104254D01*
X182863956Y-76385028D01*
X182431832Y-76385028D01*
X182431054Y-76336400D01*
X182426849Y-76150788D01*
X182419365Y-75943565D01*
X182408576Y-75805995D01*
X182392422Y-75723576D01*
X182368839Y-75681805D01*
X182335767Y-75666179D01*
X182326888Y-75664813D01*
X182298172Y-75670673D01*
X182278080Y-75704354D01*
X182265096Y-75779071D01*
X182257700Y-75908039D01*
X182254375Y-76104472D01*
X182253604Y-76381585D01*
X181690203Y-76381585D01*
X181690203Y-74953050D01*
X182617468Y-74954081D01*
X182867841Y-74954812D01*
X183132832Y-74957783D01*
X183330637Y-74964225D01*
X183476557Y-74975433D01*
X183585892Y-74992707D01*
X183673942Y-75017342D01*
X183756007Y-75050638D01*
X183954634Y-75163336D01*
X184195787Y-75373457D01*
X184371723Y-75622669D01*
X184378603Y-75635932D01*
X184442577Y-75740058D01*
X184503607Y-75777870D01*
X184590622Y-75768662D01*
X184905790Y-75670879D01*
X185326074Y-75461814D01*
X185694891Y-75180697D01*
X186003709Y-74835886D01*
X186243997Y-74435741D01*
X186407223Y-73988622D01*
X186412229Y-73968371D01*
X186446418Y-73757411D01*
X186468972Y-73482652D01*
X186479891Y-73170257D01*
X186479176Y-72846389D01*
X186466827Y-72537210D01*
X186442842Y-72268883D01*
X186407223Y-72067570D01*
X186394662Y-72021119D01*
X186223208Y-71576907D01*
X185974458Y-71182669D01*
X185653687Y-70844082D01*
X185266168Y-70566819D01*
X184817175Y-70356558D01*
X184483734Y-70234566D01*
X180657301Y-70234566D01*
X176830869Y-70234566D01*
X176492076Y-70358419D01*
X176380321Y-70402125D01*
X175957087Y-70625644D01*
X175589974Y-70916025D01*
X175287086Y-71264370D01*
X175056529Y-71661779D01*
X174906409Y-72099354D01*
X174883971Y-72218313D01*
X174855373Y-72481911D01*
X174839829Y-72793995D01*
X174837319Y-73126340D01*
X174847821Y-73450726D01*
X174871316Y-73738929D01*
X174907783Y-73962728D01*
X174984239Y-74218731D01*
X175180686Y-74630743D01*
X175450509Y-74998981D01*
X175783091Y-75312320D01*
X176167817Y-75559637D01*
X176594069Y-75729804D01*
X176747371Y-75769103D01*
X176850975Y-75780039D01*
X176891787Y-75756248D01*
X176911643Y-75715703D01*
X176973287Y-75612149D01*
X177058161Y-75481193D01*
X177099933Y-75422796D01*
X177262990Y-75256548D01*
X177484731Y-75118431D01*
X177567690Y-75077281D01*
X177678598Y-75030459D01*
X177790582Y-74999501D01*
X177926848Y-74980234D01*
X178110601Y-74968482D01*
X178365045Y-74960073D01*
X178967098Y-74943620D01*
X178967098Y-75112660D01*
X178967641Y-75138300D01*
X178983365Y-75240345D01*
X179014048Y-75281701D01*
X179044096Y-75255814D01*
X179060998Y-75170657D01*
X179069841Y-75101331D01*
X179139031Y-74960271D01*
X179254605Y-74854110D01*
X179389649Y-74812200D01*
X179474326Y-74825606D01*
X179602104Y-74911503D01*
X179687310Y-75063162D01*
X179718299Y-75264557D01*
X179718299Y-75469501D01*
X180272310Y-75469501D01*
X180525610Y-75472029D01*
X180712200Y-75483657D01*
X180832671Y-75509992D01*
X180901186Y-75556638D01*
X180931908Y-75629198D01*
X180939002Y-75733277D01*
X180938857Y-75784359D01*
X180932436Y-75889023D01*
X180905598Y-75959201D01*
X180843648Y-76001785D01*
X180731888Y-76023667D01*
X180555622Y-76031742D01*
X180300152Y-76032902D01*
X179718299Y-76032902D01*
X179718299Y-76385028D01*
X179718299Y-76737153D01*
X180300152Y-76737153D01*
X180409068Y-76737221D01*
X180632229Y-76740233D01*
X180781859Y-76752820D01*
X180872654Y-76781875D01*
X180919312Y-76834291D01*
X180936529Y-76916962D01*
X180939002Y-77036779D01*
X180932611Y-77136997D01*
X180903221Y-77210821D01*
X180836660Y-77258485D01*
X180718763Y-77285593D01*
X180535368Y-77297748D01*
X180272310Y-77300555D01*
X179718299Y-77300555D01*
X179718299Y-77535305D01*
X179716369Y-77610505D01*
X179689510Y-77761987D01*
X179624399Y-77863956D01*
X179594722Y-77890540D01*
X179455407Y-77953338D01*
X179312568Y-77939975D01*
X179186013Y-77861404D01*
X179095553Y-77728577D01*
X179060998Y-77552448D01*
X179060753Y-77536309D01*
X179045569Y-77435611D01*
X179014048Y-77394455D01*
X178999421Y-77405240D01*
X178976240Y-77482680D01*
X178967098Y-77610233D01*
X178967098Y-77826010D01*
X178321534Y-77809770D01*
X178075122Y-77802612D01*
X177881822Y-77792782D01*
X177743485Y-77777443D01*
X177639928Y-77753204D01*
X177550966Y-77716674D01*
X177456414Y-77664464D01*
X177287460Y-77545271D01*
X177119158Y-77387005D01*
X176988403Y-77222671D01*
X176917988Y-77077133D01*
X176880007Y-77007080D01*
X176766989Y-76945869D01*
X176733597Y-76938967D01*
X176129749Y-76772360D01*
X175592229Y-76539618D01*
X175119860Y-76239854D01*
X174711459Y-75872183D01*
X174365849Y-75435718D01*
X174081848Y-74929575D01*
X174019533Y-74793353D01*
X173928102Y-74571701D01*
X173859645Y-74362352D01*
X173811446Y-74147644D01*
X173780789Y-73909915D01*
X173764956Y-73631507D01*
X173761232Y-73294758D01*
X173766900Y-72882006D01*
X173773695Y-72585505D01*
X173782583Y-72308217D01*
X173793849Y-72095507D01*
X173809027Y-71931484D01*
X173829653Y-71800259D01*
X173857260Y-71685942D01*
X173893384Y-71572643D01*
X173904308Y-71541491D01*
X174144103Y-70995200D01*
X174453393Y-70505985D01*
X174827320Y-70079438D01*
X175261021Y-69721153D01*
X175749637Y-69436722D01*
X175869720Y-69380294D01*
X176052267Y-69300794D01*
X176222900Y-69238796D01*
X176396734Y-69191846D01*
X176588886Y-69157492D01*
X176814473Y-69133280D01*
X177088610Y-69116757D01*
X177426414Y-69105468D01*
X177843002Y-69096961D01*
X179042935Y-69076311D01*
X179300805Y-68646011D01*
X179558676Y-68215712D01*
X179837836Y-68192237D01*
X180116997Y-68168762D01*
X180243747Y-67464510D01*
X180266365Y-67338173D01*
X180307858Y-67102581D01*
X180341460Y-66906686D01*
X180364186Y-66768048D01*
X180373049Y-66704226D01*
X180372850Y-66699735D01*
X180331332Y-66637517D01*
X180239176Y-66567604D01*
X180215849Y-66552966D01*
X180058257Y-66397012D01*
X179953447Y-66188807D01*
X179907028Y-65954410D01*
X179924611Y-65719883D01*
X180011805Y-65511287D01*
X180054774Y-65457287D01*
X180187516Y-65338085D01*
X180341009Y-65240870D01*
X180525678Y-65170368D01*
X180763493Y-65152141D01*
X180987613Y-65225880D01*
X181203405Y-65392529D01*
X181333882Y-65548905D01*
X181432851Y-65770223D01*
X181439596Y-66003774D01*
X181355063Y-66254924D01*
X181312739Y-66330338D01*
X181207270Y-66473784D01*
X181102076Y-66572391D01*
X180959976Y-66666359D01*
X181037696Y-67088910D01*
X181045346Y-67130640D01*
X181090407Y-67380744D01*
X181135639Y-67637665D01*
X181172301Y-67851849D01*
X181229186Y-68192237D01*
X181495220Y-68192237D01*
X181761254Y-68192237D01*
X182021720Y-68626525D01*
X182282187Y-69060813D01*
X183476860Y-69089601D01*
X183499977Y-69090162D01*
X183904617Y-69101565D01*
X184227908Y-69114419D01*
X184481785Y-69129606D01*
X184678187Y-69148005D01*
X184829050Y-69170496D01*
X184946312Y-69197960D01*
X185280141Y-69311082D01*
X185802085Y-69562711D01*
X186268194Y-69886019D01*
X186673008Y-70275399D01*
X187011064Y-70725244D01*
X187276902Y-71229947D01*
X187465060Y-71783902D01*
X187490451Y-71890579D01*
X187518997Y-72046078D01*
X187538666Y-72218296D01*
X187550913Y-72426517D01*
X187557194Y-72690023D01*
X187558965Y-73028096D01*
X187557613Y-73258766D01*
X187545908Y-73643967D01*
X187519078Y-73966080D01*
X187473386Y-74245096D01*
X187405091Y-74501007D01*
X187310454Y-74753803D01*
X187185737Y-75023475D01*
X186934956Y-75455390D01*
X186591451Y-75882419D01*
X186183510Y-76243644D01*
X185957589Y-76385028D01*
X185709241Y-76540447D01*
G37*
%TD*%
M02*
